<svg class="animated" id="freepik_stories-designer-girl" xmlns="http://www.w3.org/2000/svg" viewBox="0 0 500 500" version="1.1" xmlns:xlink="http://www.w3.org/1999/xlink" xmlns:svgjs="http://svgjs.com/svgjs"><style>svg#freepik_stories-designer-girl:not(.animated) .animable {opacity: 0;}svg#freepik_stories-designer-girl.animated #ela2lynbecxne {animation: 1s 1 forwards cubic-bezier(.36,-0.01,.5,1.38) fadeIn;animation-delay: 0s;}svg#freepik_stories-designer-girl.animated #elswizjcpiaci {animation: 1s 1 forwards cubic-bezier(.36,-0.01,.5,1.38) fadeIn;animation-delay: 0.034482758620689655s;opacity: 0}svg#freepik_stories-designer-girl.animated #el4j0smkh4lzj {animation: 1s 1 forwards cubic-bezier(.36,-0.01,.5,1.38) fadeIn;animation-delay: 0.06896551724137931s;opacity: 0}svg#freepik_stories-designer-girl.animated #eljkd59qvf2ah {animation: 1s 1 forwards cubic-bezier(.36,-0.01,.5,1.38) fadeIn;animation-delay: 0.10344827586206896s;opacity: 0}svg#freepik_stories-designer-girl.animated #el23mmvmabefnh {animation: 1s 1 forwards cubic-bezier(.36,-0.01,.5,1.38) fadeIn;animation-delay: 0.13793103448275862s;opacity: 0}svg#freepik_stories-designer-girl.animated #elajlctnyo4ob {animation: 1s 1 forwards cubic-bezier(.36,-0.01,.5,1.38) fadeIn;animation-delay: 0.1724137931034483s;opacity: 0}svg#freepik_stories-designer-girl.animated #el1mh9ccr4up1 {animation: 1s 1 forwards cubic-bezier(.36,-0.01,.5,1.38) fadeIn;animation-delay: 0.20689655172413793s;opacity: 0}svg#freepik_stories-designer-girl.animated #el7vg6thjrhk {animation: 1s 1 forwards cubic-bezier(.36,-0.01,.5,1.38) fadeIn;animation-delay: 0.24137931034482757s;opacity: 0}svg#freepik_stories-designer-girl.animated #el6flpjyusp8h {animation: 1s 1 forwards cubic-bezier(.36,-0.01,.5,1.38) fadeIn;animation-delay: 0.27586206896551724s;opacity: 0}svg#freepik_stories-designer-girl.animated #el0h3l0itza7i {animation: 1s 1 forwards cubic-bezier(.36,-0.01,.5,1.38) fadeIn;animation-delay: 0.3103448275862069s;opacity: 0}svg#freepik_stories-designer-girl.animated #ellsphz0d7pvs {animation: 1s 1 forwards cubic-bezier(.36,-0.01,.5,1.38) fadeIn;animation-delay: 0.3448275862068966s;opacity: 0}svg#freepik_stories-designer-girl.animated #elxuxxuf5x0zn {animation: 1s 1 forwards cubic-bezier(.36,-0.01,.5,1.38) fadeIn;animation-delay: 0.3793103448275862s;opacity: 0}svg#freepik_stories-designer-girl.animated #el68su95dft3k {animation: 1s 1 forwards cubic-bezier(.36,-0.01,.5,1.38) fadeIn;animation-delay: 0.41379310344827586s;opacity: 0}svg#freepik_stories-designer-girl.animated #el9r9byrkn90f {animation: 1s 1 forwards cubic-bezier(.36,-0.01,.5,1.38) fadeIn;animation-delay: 0.4482758620689655s;opacity: 0}svg#freepik_stories-designer-girl.animated #elxpjkz62j0f {animation: 1s 1 forwards cubic-bezier(.36,-0.01,.5,1.38) fadeIn;animation-delay: 0.48275862068965514s;opacity: 0}svg#freepik_stories-designer-girl.animated #eli8933hbskrr {animation: 1s 1 forwards cubic-bezier(.36,-0.01,.5,1.38) fadeIn;animation-delay: 0.5172413793103449s;opacity: 0}svg#freepik_stories-designer-girl.animated #el6t0g7rbydy5 {animation: 1s 1 forwards cubic-bezier(.36,-0.01,.5,1.38) fadeIn;animation-delay: 0.5517241379310345s;opacity: 0}svg#freepik_stories-designer-girl.animated #eljvxrr5qwwn {animation: 1s 1 forwards cubic-bezier(.36,-0.01,.5,1.38) fadeIn;animation-delay: 0.5862068965517241s;opacity: 0}svg#freepik_stories-designer-girl.animated #el4mjn61kvzn3 {animation: 1s 1 forwards cubic-bezier(.36,-0.01,.5,1.38) fadeIn;animation-delay: 0.6206896551724138s;opacity: 0}svg#freepik_stories-designer-girl.animated #elkjlkjjhjtxj {animation: 1s 1 forwards cubic-bezier(.36,-0.01,.5,1.38) fadeIn;animation-delay: 0.6551724137931034s;opacity: 0}svg#freepik_stories-designer-girl.animated #elzdrke86yqa9 {animation: 1s 1 forwards cubic-bezier(.36,-0.01,.5,1.38) fadeIn;animation-delay: 0.6896551724137931s;opacity: 0}svg#freepik_stories-designer-girl.animated #elck9nc52lizb {animation: 1s 1 forwards cubic-bezier(.36,-0.01,.5,1.38) fadeIn;animation-delay: 0.7241379310344828s;opacity: 0}svg#freepik_stories-designer-girl.animated #elf6gxcj92d2 {animation: 1s 1 forwards cubic-bezier(.36,-0.01,.5,1.38) fadeIn;animation-delay: 0.7586206896551724s;opacity: 0}svg#freepik_stories-designer-girl.animated #ellk4j0p5d0z {animation: 1s 1 forwards cubic-bezier(.36,-0.01,.5,1.38) fadeIn;animation-delay: 0.7931034482758621s;opacity: 0}svg#freepik_stories-designer-girl.animated #elmoke9iai8q {animation: 1s 1 forwards cubic-bezier(.36,-0.01,.5,1.38) fadeIn;animation-delay: 0.8275862068965517s;opacity: 0}svg#freepik_stories-designer-girl.animated #elfv9koxl61m {animation: 1s 1 forwards cubic-bezier(.36,-0.01,.5,1.38) fadeIn;animation-delay: 0.8620689655172413s;opacity: 0}svg#freepik_stories-designer-girl.animated #elxrkiuxyiaq {animation: 1s 1 forwards cubic-bezier(.36,-0.01,.5,1.38) fadeIn;animation-delay: 0.896551724137931s;opacity: 0}svg#freepik_stories-designer-girl.animated #el2i1ojc3zahe {animation: 1s 1 forwards cubic-bezier(.36,-0.01,.5,1.38) fadeIn;animation-delay: 0.9310344827586207s;opacity: 0}svg#freepik_stories-designer-girl.animated #elr0xoe6le5k {animation: 1s 1 forwards cubic-bezier(.36,-0.01,.5,1.38) fadeIn;animation-delay: 0.9655172413793103s;opacity: 0}svg#freepik_stories-designer-girl.animated #freepik--Screen--inject-22 {animation: 1s 1 forwards cubic-bezier(.36,-0.01,.5,1.38) fadeIn;animation-delay: 0s;}svg#freepik_stories-designer-girl.animated #freepik--Character--inject-22 {animation: 1s 1 forwards cubic-bezier(.36,-0.01,.5,1.38) fadeIn;animation-delay: 0s;}            @keyframes fadeIn {                0% {                    opacity: 0;                }                100% {                    opacity: 1;                }            }        </style><g id="freepik--Shadow--inject-22" class="animable" style="transform-origin: 250px 416.24px;"><ellipse id="freepik--shape--inject-22" cx="250" cy="416.24" rx="193.89" ry="11.32" style="fill: rgb(245, 245, 245); transform-origin: 250px 416.24px;" class="animable"></ellipse></g><g id="freepik--Screen--inject-22" class="animable" style="transform-origin: 204.7px 155.625px;"><path d="M324.2,100.28V220.07a14.81,14.81,0,0,1-14.81,14.82H297.5V100.28Z" style="fill: rgb(168, 85, 255); transform-origin: 310.85px 167.585px;" id="ela2lynbecxne" class="animable"></path><g id="elswizjcpiaci"><path d="M324.2,100.28V220.07a14.81,14.81,0,0,1-14.81,14.82H297.5V100.28Z" style="fill: rgb(255, 255, 255); opacity: 0.8; transform-origin: 310.85px 167.585px;" class="animable"></path></g><path d="M324.2,91.18V220.07a14.81,14.81,0,0,1-14.81,14.82H100.06a14.82,14.82,0,0,1-14.82-14.82V91.18a14.81,14.81,0,0,1,14.82-14.82H309.39A14.81,14.81,0,0,1,324.2,91.18Z" style="fill: rgb(255, 255, 255); stroke: rgb(168, 85, 255); stroke-miterlimit: 10; transform-origin: 204.72px 155.625px;" id="el4j0smkh4lzj" class="animable"></path><path d="M323.52,86.73H85.92a14.82,14.82,0,0,1,14.14-10.37H309.39A14.82,14.82,0,0,1,323.52,86.73Z" style="fill: rgb(168, 85, 255); transform-origin: 204.72px 81.545px;" id="eljkd59qvf2ah" class="animable"></path><circle cx="115.44" cy="81.55" r="2.1" style="fill: rgb(255, 255, 255); transform-origin: 115.44px 81.55px;" id="el23mmvmabefnh" class="animable"></circle><circle cx="122.94" cy="81.55" r="2.1" style="fill: rgb(255, 255, 255); transform-origin: 122.94px 81.55px;" id="elajlctnyo4ob" class="animable"></circle><path d="M132.53,81.55a2.11,2.11,0,1,1-2.1-2.11A2.1,2.1,0,0,1,132.53,81.55Z" style="fill: rgb(255, 255, 255); transform-origin: 130.42px 81.55px;" id="el1mh9ccr4up1" class="animable"></path><path d="M324.2,91.18v9.1h-239v-9.1a14.89,14.89,0,0,1,.68-4.45h237.6A14.89,14.89,0,0,1,324.2,91.18Z" style="fill: rgb(168, 85, 255); transform-origin: 204.7px 93.505px;" id="el7vg6thjrhk" class="animable"></path><g id="el6flpjyusp8h"><path d="M324.2,91.18v9.1h-239v-9.1a14.89,14.89,0,0,1,.68-4.45h237.6A14.89,14.89,0,0,1,324.2,91.18Z" style="fill: rgb(255, 255, 255); opacity: 0.5; transform-origin: 204.7px 93.505px;" class="animable"></path></g><path d="M113.35,100.28V234.89H99.73a15.13,15.13,0,0,1-14.49-10.38V100.28Z" style="fill: rgb(168, 85, 255); transform-origin: 99.295px 167.585px;" id="el0h3l0itza7i" class="animable"></path><g id="ellsphz0d7pvs"><path d="M113.35,100.28V234.89H99.73a15.13,15.13,0,0,1-14.49-10.38V100.28Z" style="opacity: 0.1; transform-origin: 99.295px 167.585px;" class="animable"></path></g><g id="elxuxxuf5x0zn"><rect x="122.94" y="109.82" width="165.19" height="111.49" style="fill: rgb(168, 85, 255); opacity: 0.1; transform-origin: 205.535px 165.565px;" class="animable"></rect></g><g id="el68su95dft3k"><rect x="89.55" y="115.44" width="7.1" height="7.1" style="opacity: 0.2; transform-origin: 93.1px 118.99px;" class="animable"></rect></g><g id="el9r9byrkn90f"><rect x="100.3" y="115.44" width="7.1" height="7.1" style="opacity: 0.2; transform-origin: 103.85px 118.99px;" class="animable"></rect></g><path d="M222.06,165.12c6.05-7.84,10-18.13,9.18-28.18-.77-9.43-8.38-15.18-17.62-12.92-3.9,1-7.47,2.9-11.07,4.69-6,3-12.32,5.56-19,6.37s-13.29,0-19.8,2.55c-11.33,4.42-14.48,18.9-10.11,29.4,3.88,9.32,13.12,16.52,22.95,18.52" style="fill: none; stroke: rgb(38, 50, 56); stroke-linecap: round; stroke-linejoin: round; transform-origin: 191.549px 154.539px;" id="elxpjkz62j0f" class="animable"></path><g id="eli8933hbskrr"><rect x="89.55" y="126.7" width="7.1" height="7.1" style="opacity: 0.2; transform-origin: 93.1px 130.25px;" class="animable"></rect></g><g id="el6t0g7rbydy5"><rect x="100.3" y="126.7" width="7.1" height="7.1" style="opacity: 0.2; transform-origin: 103.85px 130.25px;" class="animable"></rect></g><g id="eljvxrr5qwwn"><rect x="89.55" y="137.96" width="7.1" height="7.1" style="opacity: 0.2; transform-origin: 93.1px 141.51px;" class="animable"></rect></g><g id="el4mjn61kvzn3"><rect x="100.3" y="137.96" width="7.1" height="7.1" style="opacity: 0.2; transform-origin: 103.85px 141.51px;" class="animable"></rect></g><g id="elkjlkjjhjtxj"><rect x="89.55" y="149.22" width="7.1" height="7.1" style="opacity: 0.2; transform-origin: 93.1px 152.77px;" class="animable"></rect></g><g id="elzdrke86yqa9"><rect x="100.3" y="149.22" width="7.1" height="7.1" style="opacity: 0.2; transform-origin: 103.85px 152.77px;" class="animable"></rect></g><g id="elck9nc52lizb"><rect x="89.55" y="160.47" width="7.1" height="7.1" style="opacity: 0.2; transform-origin: 93.1px 164.02px;" class="animable"></rect></g><g id="elf6gxcj92d2"><rect x="100.3" y="160.47" width="7.1" height="7.1" style="opacity: 0.2; transform-origin: 103.85px 164.02px;" class="animable"></rect></g><g id="ellk4j0p5d0z"><rect x="89.55" y="171.73" width="7.1" height="7.1" style="opacity: 0.2; transform-origin: 93.1px 175.28px;" class="animable"></rect></g><g id="elmoke9iai8q"><rect x="100.3" y="171.73" width="7.1" height="7.1" style="opacity: 0.2; transform-origin: 103.85px 175.28px;" class="animable"></rect></g><path d="M96.42,182.67a.81.81,0,1,1-.8-.81A.8.8,0,0,1,96.42,182.67Z" style="fill: rgb(38, 50, 56); transform-origin: 95.61px 182.67px;" id="elfv9koxl61m" class="animable"></path><path d="M99.33,182.67a.81.81,0,1,1-.81-.81A.8.8,0,0,1,99.33,182.67Z" style="fill: rgb(38, 50, 56); transform-origin: 98.52px 182.67px;" id="elxrkiuxyiaq" class="animable"></path><path d="M102.23,182.67a.81.81,0,1,1-.8-.81A.8.8,0,0,1,102.23,182.67Z" style="fill: rgb(38, 50, 56); transform-origin: 101.42px 182.67px;" id="el2i1ojc3zahe" class="animable"></path><polygon points="201.1 175.08 199.83 175.97 199.07 170.42 203.7 173.24 202.55 174.02 204.34 176.66 202.93 177.82 201.1 175.08" style="fill: rgb(38, 50, 56); transform-origin: 201.705px 174.12px;" id="elr0xoe6le5k" class="animable"></polygon></g><g id="freepik--Character--inject-22" class="animable" style="transform-origin: 250px 283.334px;"><path d="M298.1,236.09S293,260.71,289.55,267s-23.23,6-23.23,6l-22.9-1.14s-4.36-14.27,14.31-6.87c0,0,15.75-3,21.76-8l6.3-25.83Z" style="fill: rgb(255, 139, 123); transform-origin: 270.539px 252.081px;" id="eljs4mm0ely2m" class="animable"></path><polygon points="366.25 419.63 360.14 419.63 343.56 329.44 342.99 326.33 348.89 325.24 349.66 329.44 366.25 419.63" style="fill: rgb(168, 85, 255); transform-origin: 354.62px 372.435px;" id="ely4kz7auj53" class="animable"></polygon><g id="elw6ly3da6d9f"><polygon points="366.25 419.63 360.14 419.63 343.56 329.44 342.99 326.33 348.89 325.24 349.66 329.44 366.25 419.63" style="fill: rgb(255, 255, 255); opacity: 0.5; transform-origin: 354.62px 372.435px;" class="animable"></polygon></g><polygon points="339.9 419.63 333.87 419.63 325.59 329.44 324.71 319.84 324.51 317.71 330.48 317.16 330.73 319.84 331.61 329.44 339.9 419.63" style="fill: rgb(168, 85, 255); transform-origin: 332.205px 368.395px;" id="elrqe4ccytmtm" class="animable"></polygon><g id="elvi88aa6yji"><polygon points="339.9 419.63 333.87 419.63 325.59 329.44 324.71 319.84 324.51 317.71 330.48 317.16 330.73 319.84 331.61 329.44 339.9 419.63" style="fill: rgb(255, 255, 255); opacity: 0.5; transform-origin: 332.205px 368.395px;" class="animable"></polygon></g><polygon points="278.24 320.98 277.6 329.44 270.74 419.63 264.72 419.63 271.57 329.44 272.25 320.53 278.24 320.98" style="fill: rgb(168, 85, 255); transform-origin: 271.48px 370.08px;" id="elgwtesqcbtvm" class="animable"></polygon><g id="el2x74vpt0bgr"><polygon points="278.24 320.98 277.6 329.44 270.74 419.63 264.72 419.63 271.57 329.44 272.25 320.53 278.24 320.98" style="fill: rgb(255, 255, 255); opacity: 0.5; transform-origin: 271.48px 370.08px;" class="animable"></polygon></g><polygon points="260.85 321.25 259.5 329.44 244.63 419.63 238.55 419.63 253.43 329.44 254.94 320.27 260.85 321.25" style="fill: rgb(168, 85, 255); transform-origin: 249.7px 369.95px;" id="elgbko3cjwk" class="animable"></polygon><g id="elp16fud5sea"><polygon points="260.85 321.25 259.5 329.44 244.63 419.63 238.55 419.63 253.43 329.44 254.94 320.27 260.85 321.25" style="fill: rgb(255, 255, 255); opacity: 0.5; transform-origin: 249.7px 369.95px;" class="animable"></polygon></g><path d="M358.92,318.43l-.55,1.41-2.63,6.65a4.62,4.62,0,0,1-4.33,2.95H252.35a4.67,4.67,0,0,1-4.4-3.08l-2.33-6.52-.55-1.55a4.65,4.65,0,0,1,4.39-6.22H354.59A4.65,4.65,0,0,1,358.92,318.43Z" style="fill: rgb(168, 85, 255); transform-origin: 302.021px 320.755px;" id="elpw3mrysarn" class="animable"></path><g id="elh2722sxu4q"><path d="M358.37,319.84l-2.63,6.65a4.62,4.62,0,0,1-4.33,2.95H252.35a4.67,4.67,0,0,1-4.4-3.08l-2.33-6.52Z" style="opacity: 0.3; transform-origin: 301.995px 324.64px;" class="animable"></path></g><path d="M258.05,377.34l4.68-10.63a2.79,2.79,0,0,1,3.33-1.56l7.4,2.1a2.81,2.81,0,0,1,1.79,3.85c-2,4.52-5.8,12.94-7,15.95-1.63,4.19-3,9.24-5.18,10.65a2.91,2.91,0,0,1-.42.23,2.77,2.77,0,0,1-3.78-3.05c.58-3.52,1.21-10.1-.91-15.41A2.72,2.72,0,0,1,258.05,377.34Z" style="fill: rgb(38, 50, 56); transform-origin: 266.64px 381.589px;" id="el0ofwvr39o81" class="animable"></path><path d="M298.46,276.3s-50.55-6.9-65.82,7.46c0,0-9.46,12.91-4.91,38.18A105.28,105.28,0,0,0,246.64,365l13.27-11.28s-11.81-29.09-7.81-47.09l18.36-1.09,26.33-18,2.76-7.46Z" style="fill: rgb(38, 50, 56); transform-origin: 263.021px 319.821px;" id="elb6653qrwbf6" class="animable"></path><polygon points="247.86 370.08 242.91 364.07 261.05 349.15 264.48 352.72 247.86 370.08" style="fill: rgb(168, 85, 255); transform-origin: 253.695px 359.615px;" id="elgyldrg9rwz" class="animable"></polygon><path d="M348.15,275.75s1.4,14.4-3.17,24.94-20.72,14.4-31.61,13.7-24.94-1.6-30.91.08c0,0-7.73,43.83-21.08,75.79l-16.16-1.4S254,327,255.41,312.63s.7-16.51,9.48-23.53S318.64,272.59,348.15,275.75Z" style="fill: rgb(38, 50, 56); transform-origin: 296.786px 332.692px;" id="el88bok13i2cm" class="animable"></path><polygon points="257.27 396.05 255.74 402.74 242.91 407.23 246.64 392.98 257.27 396.05" style="fill: rgb(255, 139, 123); transform-origin: 250.09px 400.105px;" id="el1wn4zz0swq4" class="animable"></polygon><path d="M242.74,406.81l10.9-4.05a2.8,2.8,0,0,1,3.44,1.31l3.64,6.77a2.8,2.8,0,0,1-1.52,4c-4.65,1.69-13.32,4.85-16.29,6.11-4.14,1.76-8.72,4.29-11.25,3.7a3.47,3.47,0,0,1-.46-.13,2.78,2.78,0,0,1-.44-4.85c2.93-2,8.09-6.16,10.42-11.38A2.73,2.73,0,0,1,242.74,406.81Z" style="fill: rgb(38, 50, 56); transform-origin: 245.304px 413.662px;" id="elziud2wqow99" class="animable"></path><path d="M298.1,279.61s-6.58-43.52-8-54.11,0-16,4-19.47,22.34-10.88,34.65-8.88,18.32,12.31,20,24l-2.86,1.43s3.66,40.56,2.33,54.59Z" style="fill: rgb(168, 85, 255); transform-origin: 319.157px 238.211px;" id="ellnbundu871h" class="animable"></path><path d="M294.09,206s-9.73,8.59-9.73,25.19L299.53,237Z" style="fill: rgb(168, 85, 255); transform-origin: 291.945px 221.5px;" id="el3k1rgwvlqmr" class="animable"></path><path d="M346.12,222.42s5.51,19.48,4,27.53S334.9,268.8,315.84,272.4c0,0-8.47,1.48-13.35-2.54l-7.41-2.12,2.12-6.57A39.64,39.64,0,0,1,313.51,265s18.21-8.26,23.93-14.61c0,0-.64-12.92-3.81-22Z" style="fill: rgb(255, 139, 123); transform-origin: 322.731px 247.543px;" id="elf4hrvvw9jnq" class="animable"></path><polygon points="263.63 390.26 242.36 387.06 241.59 393.75 260.89 397.69 263.63 390.26" style="fill: rgb(168, 85, 255); transform-origin: 252.61px 392.375px;" id="ell59expafuz" class="animable"></polygon><path d="M283.43,179.18a16.32,16.32,0,0,0,.46,11.77,15.69,15.69,0,0,1,.4-9c1-2.74,2.65-5.15,3.93-7.75s2.15-5.63,1.3-8.4c-.18-.55-.58-1.19-1.15-1.1s-.69.57-.85,1a17,17,0,0,0-1.26,3.57c-.14.95,0,1.89-.14,2.86C285.65,174.57,284.26,176.79,283.43,179.18Z" style="fill: rgb(38, 50, 56); transform-origin: 286.203px 177.821px;" id="elmy468broysl" class="animable"></path><path d="M289.32,170.75a4.39,4.39,0,0,0-2.82,3.69,7.61,7.61,0,0,1-2.93-9.26c2.31-6,5.44-14.51,14.76-13.27s28.86,4,21.86,24.82-13.94-4.61-13.94-4.61Z" style="fill: rgb(38, 50, 56); transform-origin: 302.342px 168.356px;" id="eljqo7crgn47f" class="animable"></path><path d="M309.71,209.66c-8.49-.53-4.89-7.85-4.5-10.56a5.86,5.86,0,0,0-.74-3.4,11.15,11.15,0,0,0-1.44-2.14c-3.72,0-7.84-.5-10.79-3-3.3-2.75-4.61-7.88-5.15-11.95a61.3,61.3,0,0,1-.22-11.34c0-.56.08-1.11.1-1.66.13-2.17.27-4.33.35-6.45,0,0,8.23-1.81,15.58-.13,5.44,1.24,9.26,5.76,10.91,12.87a37.52,37.52,0,0,1,.91,8.25c.15,11.82,4.78,13.89,6.59,17.36S318.22,210.16,309.71,209.66Z" style="fill: rgb(255, 139, 123); transform-origin: 304.195px 183.998px;" id="el9n12qwy5" class="animable"></path><path d="M294.54,181.17l-2-7.61-1.37,8S292.28,182.47,294.54,181.17Z" style="fill: rgb(255, 86, 82); transform-origin: 292.855px 177.715px;" id="elaujudu3aw1k" class="animable"></path><path d="M300.42,182.47s-1.25,2.68-5.23,3.15" style="fill: none; stroke: rgb(38, 50, 56); stroke-linecap: round; stroke-linejoin: round; stroke-width: 0.5px; transform-origin: 297.805px 184.045px;" id="eletpu0xfayef" class="animable"></path><path d="M300,169.58a3.94,3.94,0,0,0-4.4-1" style="fill: none; stroke: rgb(38, 50, 56); stroke-linecap: round; stroke-linejoin: round; stroke-width: 0.75px; transform-origin: 297.8px 168.935px;" id="eleqkh096conq" class="animable"></path><path d="M296.84,173.31c.07.77.52,1.36,1,1.32s.82-.7.76-1.47-.52-1.36-1-1.32S296.78,172.54,296.84,173.31Z" style="fill: rgb(38, 50, 56); transform-origin: 297.72px 173.235px;" id="elpy3x5ozfwqs" class="animable"></path><path d="M288,175.49c.07.77.52,1.36,1,1.32s.82-.7.76-1.47-.52-1.37-1-1.32S288,174.72,288,175.49Z" style="fill: rgb(38, 50, 56); transform-origin: 288.883px 175.415px;" id="elztjt7ivfqb" class="animable"></path><path d="M286.72,165.73a22.9,22.9,0,0,0,8.83-4.15c2.94,9.72,15.46,10.07,18.59,10.07-1.64-7.11-5.58-12.05-11-13.29-7.34-1.68-16,.26-16,.26C287.06,160.75,286.84,163.57,286.72,165.73Z" style="fill: rgb(38, 50, 56); transform-origin: 300.43px 164.663px;" id="elf3ht9zbk2uu" class="animable"></path><path d="M297.6,171.84l-2.05-.39S296.08,172.94,297.6,171.84Z" style="fill: rgb(38, 50, 56); transform-origin: 296.575px 171.847px;" id="elrakhbfm21m" class="animable"></path><path d="M289.17,174.06l-2.05-.38S287.65,175.16,289.17,174.06Z" style="fill: rgb(38, 50, 56); transform-origin: 288.145px 174.073px;" id="eluldfsojvkj" class="animable"></path><g id="el1koe9dg9fsh"><ellipse cx="308.19" cy="151.52" rx="7.87" ry="8.26" style="fill: rgb(38, 50, 56); transform-origin: 308.19px 151.52px; transform: rotate(-76.43deg);" class="animable"></ellipse></g><path d="M292.87,163l-1.66,2.18s4.39-.76,5.36-3.76-2.69-.65-2.69-.65Z" style="fill: rgb(38, 50, 56); transform-origin: 293.972px 162.537px;" id="el76g8k7s6ow" class="animable"></path><g id="el75ar3xpi3ph"><path d="M308.64,191.18a15.54,15.54,0,0,1-4.17,4.52,11.15,11.15,0,0,0-1.44-2.14A20.44,20.44,0,0,0,308.64,191.18Z" style="opacity: 0.1; transform-origin: 305.835px 193.44px;" class="animable"></path></g><path d="M286.12,172.07a3.17,3.17,0,0,1,3.46-2.17" style="fill: none; stroke: rgb(38, 50, 56); stroke-linecap: round; stroke-linejoin: round; stroke-width: 0.75px; transform-origin: 287.85px 170.97px;" id="el0jrba7jnd90t" class="animable"></path><path d="M311.58,172.87a7.85,7.85,0,0,1,.93-1.14c1.17-1.19,3.08-2.75,4.85-1.88,2.14,1,1.69,4.05,1.09,5.89a6.62,6.62,0,0,1-3.08,3.89c-2.11,1.09-5.25.51-5.23-2.33A8.06,8.06,0,0,1,311.58,172.87Z" style="fill: rgb(255, 139, 123); transform-origin: 314.543px 174.871px;" id="elytpu5ea0xbs" class="animable"></path><path d="M313.81,169.6s-3.5,5.9-2.07,11.12.64,7.68-.35,10.45c0,0,.39-7.93-1.25-10.79-2.5-4.37,1-10.8,1-10.8Z" style="fill: rgb(38, 50, 56); transform-origin: 311.525px 180.375px;" id="eldstyy9e6s88" class="animable"></path><path d="M300.29,152s9.06,1.08,14.51,4.8C314.8,156.75,310.07,150.46,300.29,152Z" style="fill: rgb(168, 85, 255); transform-origin: 307.545px 154.279px;" id="elaxxy7fz5rji" class="animable"></path><path d="M188.44,269.52h57a3.81,3.81,0,0,0,3.7-4.73L239,224.38a3.81,3.81,0,0,0-3.7-2.89h-57a3.81,3.81,0,0,0-3.7,4.73l10.08,40.41A3.81,3.81,0,0,0,188.44,269.52Z" style="fill: rgb(38, 50, 56); transform-origin: 211.87px 245.505px;" id="el0tq835wej21m" class="animable"></path><g id="eldz74depcicc"><path d="M243.47,266.33h38.74a0,0,0,0,1,0,0v3a0,0,0,0,1,0,0H245.45a2,2,0,0,1-2-2v-1.06A0,0,0,0,1,243.47,266.33Z" style="fill: rgb(38, 50, 56); transform-origin: 262.83px 267.8px; transform: rotate(180deg);" class="animable"></path></g><g id="elx9bo9r2ll5n"><path d="M188.44,269.52h57a3.81,3.81,0,0,0,3.7-4.73L239,224.38a3.81,3.81,0,0,0-3.7-2.89h-57a3.81,3.81,0,0,0-3.7,4.73l10.08,40.41A3.81,3.81,0,0,0,188.44,269.52Z" style="opacity: 0.3; transform-origin: 211.87px 245.505px;" class="animable"></path></g><path d="M185.45,269.52h57a3.81,3.81,0,0,0,3.7-4.73L236,224.38a3.81,3.81,0,0,0-3.7-2.89h-57a3.81,3.81,0,0,0-3.7,4.73l10.08,40.41A3.82,3.82,0,0,0,185.45,269.52Z" style="fill: rgb(38, 50, 56); transform-origin: 208.875px 245.505px;" id="eln7269jmctdo" class="animable"></path><g id="eluunt000fknc"><path d="M185.45,269.52h57a3.81,3.81,0,0,0,3.7-4.73L236,224.38a3.81,3.81,0,0,0-3.7-2.89h-57a3.81,3.81,0,0,0-3.7,4.73l10.08,40.41A3.82,3.82,0,0,0,185.45,269.52Z" style="fill: rgb(255, 255, 255); opacity: 0.2; transform-origin: 208.875px 245.505px;" class="animable"></path></g><g id="elb8twe1lmo3v"><path d="M211.41,244.32c.79,3.37-.8,6.64-3.56,7.29s-5.66-1.55-6.46-4.92.8-6.64,3.56-7.29S210.61,241,211.41,244.32Z" style="opacity: 0.3; transform-origin: 206.398px 245.506px;" class="animable"></path></g><polygon points="171.62 273.03 150.59 403.45 145.93 403.45 167.08 272.29 171.62 273.03" style="fill: rgb(168, 85, 255); transform-origin: 158.775px 337.87px;" id="eld11lrsqvsvm" class="animable"></polygon><g id="elg5vy1coximt"><polygon points="171.62 273.03 150.59 403.45 145.93 403.45 167.08 272.29 171.62 273.03" style="fill: rgb(255, 255, 255); opacity: 0.5; transform-origin: 158.775px 337.87px;" class="animable"></polygon></g><polygon points="202.56 403.45 197.89 403.45 177.57 273.02 182.12 272.31 202.56 403.45" style="fill: rgb(168, 85, 255); transform-origin: 190.065px 337.88px;" id="elnigezuzom6r" class="animable"></polygon><g id="eljz90tjrm0vg"><polygon points="202.56 403.45 197.89 403.45 177.57 273.02 182.12 272.31 202.56 403.45" style="fill: rgb(255, 255, 255); opacity: 0.5; transform-origin: 190.065px 337.88px;" class="animable"></polygon></g><polygon points="251.08 273.03 230.05 403.45 225.38 403.45 246.53 272.29 251.08 273.03" style="fill: rgb(168, 85, 255); transform-origin: 238.23px 337.87px;" id="elxikb83lju9" class="animable"></polygon><g id="ely4ymq14gska"><polygon points="251.08 273.03 230.05 403.45 225.38 403.45 246.53 272.29 251.08 273.03" style="fill: rgb(255, 255, 255); opacity: 0.5; transform-origin: 238.23px 337.87px;" class="animable"></polygon></g><polygon points="321.27 403.45 316.61 403.45 296.28 273.02 300.83 272.31 321.27 403.45" style="fill: rgb(168, 85, 255); transform-origin: 308.775px 337.88px;" id="eltms6ia3j26n" class="animable"></polygon><g id="elp5ocd7ut5dn"><polygon points="321.27 403.45 316.61 403.45 296.28 273.02 300.83 272.31 321.27 403.45" style="fill: rgb(255, 255, 255); opacity: 0.5; transform-origin: 308.775px 337.88px;" class="animable"></polygon></g><rect x="133.75" y="268.58" width="193.25" height="6.07" style="fill: rgb(168, 85, 255); transform-origin: 230.375px 271.615px;" id="elb9e4m0cuvh7" class="animable"></rect><g id="elq91hnv3dj3"><rect x="249.2" y="268.58" width="77.89" height="6.07" style="opacity: 0.3; transform-origin: 288.145px 271.615px;" class="animable"></rect></g><path d="M320.07,268.58H288.15a1.78,1.78,0,0,1,1.78-1.78h28.35a1.79,1.79,0,0,1,1.79,1.78Z" style="fill: rgb(38, 50, 56); transform-origin: 304.11px 267.69px;" id="elu7irpnoirlm" class="animable"></path><path d="M308.48,251.57l-4.3,10.32c-.79-.16-1.5-.27-2-.34l4.48-10.75a1,1,0,0,1,1.85.77Z" style="fill: rgb(38, 50, 56); transform-origin: 305.383px 256.038px;" id="eltkvdtd6hyeb" class="animable"></path><ellipse cx="311.52" cy="231.91" rx="10" ry="11.58" style="fill: rgb(38, 50, 56); transform-origin: 311.52px 231.91px;" id="elsqf2zvhn0aq" class="animable"></ellipse><polygon points="333.63 228.35 332.95 225.94 348.26 218.31 348.78 221.2 333.63 228.35" style="fill: rgb(38, 50, 56); transform-origin: 340.865px 223.33px;" id="el6eth18rnf7o" class="animable"></polygon><g id="elix54q4zokck"><polygon points="332.95 225.94 328.31 218.99 335.68 236.21 332.95 225.94" style="opacity: 0.1; transform-origin: 331.995px 227.6px;" class="animable"></polygon></g><polygon points="291.27 233.83 290.85 231.22 284.36 228.75 284.36 231.22 291.27 233.83" style="fill: rgb(38, 50, 56); transform-origin: 287.815px 231.29px;" id="elz11pdf6gnji" class="animable"></polygon><g id="elf8jy1w10b8"><path d="M291.27,233.83c-.13-.5-1.72-11.41-1.72-11.41v10.76Z" style="opacity: 0.1; transform-origin: 290.41px 228.125px;" class="animable"></path></g><path d="M304.2,200.94s-4.38,9.78,5.94,9.47,12.92-7.93,13.44-13.6l-3.22-1.11s-1.86,8-8.84,9.59-6.4-5.69-6.4-5.69Z" style="fill: rgb(38, 50, 56); transform-origin: 313.428px 203.059px;" id="el1b82r1fzgwg" class="animable"></path><g id="el62r4marddm2"><polygon points="245.56 397.09 256.45 399.65 257.07 396.92 246.19 394.69 245.56 397.09" style="opacity: 0.1; transform-origin: 251.315px 397.17px;" class="animable"></polygon></g></g><defs>     <filter id="active" height="200%">         <feMorphology in="SourceAlpha" result="DILATED" operator="dilate" radius="2"></feMorphology>                <feFlood flood-color="#32DFEC" flood-opacity="1" result="PINK"></feFlood>        <feComposite in="PINK" in2="DILATED" operator="in" result="OUTLINE"></feComposite>        <feMerge>            <feMergeNode in="OUTLINE"></feMergeNode>            <feMergeNode in="SourceGraphic"></feMergeNode>        </feMerge>    </filter>    <filter id="hover" height="200%">        <feMorphology in="SourceAlpha" result="DILATED" operator="dilate" radius="2"></feMorphology>                <feFlood flood-color="#ff0000" flood-opacity="0.5" result="PINK"></feFlood>        <feComposite in="PINK" in2="DILATED" operator="in" result="OUTLINE"></feComposite>        <feMerge>            <feMergeNode in="OUTLINE"></feMergeNode>            <feMergeNode in="SourceGraphic"></feMergeNode>        </feMerge>            <feColorMatrix type="matrix" values="0   0   0   0   0                0   1   0   0   0                0   0   0   0   0                0   0   0   1   0 "></feColorMatrix>    </filter></defs></svg>