<svg width="143" height="31" viewBox="0 0 143 31" fill="none" xmlns="http://www.w3.org/2000/svg">
<path d="M24.3164 4.39453L25.0391 6.71875C25.1042 6.95312 25.2018 7.3112 25.332 7.79297C25.4753 8.27474 25.5859 8.66536 25.6641 8.96484C25.7552 9.2513 25.8008 9.42057 25.8008 9.47266C25.8008 9.58984 25.7227 9.64844 25.5664 9.64844C25.4622 9.64844 25.3255 9.51172 25.1562 9.23828C23.3984 6.67318 19.4401 5.39062 13.2812 5.39062H7.03125V15.7617H13.4766C15.7292 15.7617 17.3242 15.6576 18.2617 15.4492C19.2122 15.2409 19.9674 14.9023 20.5273 14.4336C20.8919 14.1211 21.1589 13.7109 21.3281 13.2031C21.4323 12.9557 21.5234 12.832 21.6016 12.832C21.7578 12.832 21.8359 13.0208 21.8359 13.3984V20.1953C21.8359 20.3255 21.7969 20.3906 21.7188 20.3906C21.5885 20.3906 21.4583 20.1953 21.3281 19.8047C21.1849 19.401 20.944 19.0299 20.6055 18.6914C20.2799 18.3398 19.8242 18.0143 19.2383 17.7148C18.6654 17.4154 17.9036 17.181 16.9531 17.0117C16.0026 16.8424 14.9089 16.7578 13.6719 16.7578H7.03125V23.1641C7.03125 25.0651 7.17448 26.5299 7.46094 27.5586C7.7474 28.5742 8.3138 29.2708 9.16016 29.6484C9.42057 29.7526 9.55078 29.8568 9.55078 29.9609C9.55078 30.0651 9.42057 30.1172 9.16016 30.1172C9.06901 30.1172 8.8737 30.1042 8.57422 30.0781C8.27474 30.0651 7.84505 30.0456 7.28516 30.0195C6.72526 30.0065 6.08073 30 5.35156 30C4.66146 30 3.9974 30.0065 3.35938 30.0195C2.73438 30.0456 2.23958 30.0651 1.875 30.0781C1.51042 30.1042 1.29557 30.1172 1.23047 30.1172C1.04818 30.1172 0.957031 30.0651 0.957031 29.9609C0.957031 29.8958 1.08073 29.8307 1.32812 29.7656C1.74479 29.6224 2.09635 29.4076 2.38281 29.1211C2.66927 28.8216 2.89062 28.5026 3.04688 28.1641C3.20312 27.8125 3.32031 27.3503 3.39844 26.7773C3.48958 26.1914 3.54167 25.651 3.55469 25.1562C3.58073 24.6615 3.59375 24.0104 3.59375 23.2031V7.40234C3.59375 6.73828 3.48307 6.22396 3.26172 5.85938C3.04036 5.49479 2.64323 5.18229 2.07031 4.92188C1.8099 4.85677 1.67969 4.7526 1.67969 4.60938C1.67969 4.46615 1.98568 4.39453 2.59766 4.39453H24.3164ZM49.375 16.7969H31.5039C31.3346 17.6693 31.25 18.3268 31.25 18.7695C31.25 19.9805 31.3411 21.1068 31.5234 22.1484C31.7057 23.1771 32.0052 24.1471 32.4219 25.0586C32.8516 25.9701 33.3919 26.7448 34.043 27.3828C34.694 28.0208 35.5013 28.5221 36.4648 28.8867C37.4414 29.2513 38.5482 29.4336 39.7852 29.4336C40.918 29.4336 41.9922 29.2318 43.0078 28.8281C44.0365 28.4115 44.8828 27.9102 45.5469 27.3242C46.224 26.7253 46.8229 26.0807 47.3438 25.3906C47.8646 24.7005 48.2487 24.0951 48.4961 23.5742C48.7435 23.0534 48.8932 22.6367 48.9453 22.3242C49.0104 21.9466 49.1797 21.7578 49.4531 21.7578C49.6745 21.7578 49.7852 21.8815 49.7852 22.1289C49.7852 22.4154 49.7135 22.7474 49.5703 23.125C48.8411 25.4557 47.4479 27.2852 45.3906 28.6133C43.3333 29.9414 40.944 30.6055 38.2227 30.6055C36.2044 30.6055 34.362 30.0911 32.6953 29.0625C31.0417 28.0208 29.7461 26.6406 28.8086 24.9219C27.8841 23.1901 27.4219 21.3216 27.4219 19.3164C27.4219 18.0013 27.6823 16.7057 28.2031 15.4297C28.737 14.1536 29.4727 13.0078 30.4102 11.9922C31.3607 10.9766 32.5521 10.1562 33.9844 9.53125C35.4297 8.90625 36.9987 8.59375 38.6914 8.59375C40.0065 8.59375 41.2695 8.77604 42.4805 9.14062C43.7044 9.49219 44.8047 10 45.7812 10.6641C46.7708 11.3281 47.5846 12.194 48.2227 13.2617C48.8737 14.3164 49.2578 15.4948 49.375 16.7969ZM31.582 15.8008H45.5469C45.5469 13.8997 44.9284 12.3958 43.6914 11.2891C42.4544 10.1693 40.8724 9.60938 38.9453 9.60938C34.974 9.60938 32.5195 11.6732 31.582 15.8008ZM74.5703 16.7969H56.6992C56.5299 17.6693 56.4453 18.3268 56.4453 18.7695C56.4453 19.9805 56.5365 21.1068 56.7188 22.1484C56.901 23.1771 57.2005 24.1471 57.6172 25.0586C58.0469 25.9701 58.5872 26.7448 59.2383 27.3828C59.8893 28.0208 60.6966 28.5221 61.6602 28.8867C62.6367 29.2513 63.7435 29.4336 64.9805 29.4336C66.1133 29.4336 67.1875 29.2318 68.2031 28.8281C69.2318 28.4115 70.0781 27.9102 70.7422 27.3242C71.4193 26.7253 72.0182 26.0807 72.5391 25.3906C73.0599 24.7005 73.444 24.0951 73.6914 23.5742C73.9388 23.0534 74.0885 22.6367 74.1406 22.3242C74.2057 21.9466 74.375 21.7578 74.6484 21.7578C74.8698 21.7578 74.9805 21.8815 74.9805 22.1289C74.9805 22.4154 74.9089 22.7474 74.7656 23.125C74.0365 25.4557 72.6432 27.2852 70.5859 28.6133C68.5286 29.9414 66.1393 30.6055 63.418 30.6055C61.3997 30.6055 59.5573 30.0911 57.8906 29.0625C56.237 28.0208 54.9414 26.6406 54.0039 24.9219C53.0794 23.1901 52.6172 21.3216 52.6172 19.3164C52.6172 18.0013 52.8776 16.7057 53.3984 15.4297C53.9323 14.1536 54.668 13.0078 55.6055 11.9922C56.556 10.9766 57.7474 10.1562 59.1797 9.53125C60.625 8.90625 62.194 8.59375 63.8867 8.59375C65.2018 8.59375 66.4648 8.77604 67.6758 9.14062C68.8997 9.49219 70 10 70.9766 10.6641C71.9661 11.3281 72.7799 12.194 73.418 13.2617C74.069 14.3164 74.4531 15.4948 74.5703 16.7969ZM56.7773 15.8008H70.7422C70.7422 13.8997 70.1237 12.3958 68.8867 11.2891C67.6497 10.1693 66.0677 9.60938 64.1406 9.60938C60.1693 9.60938 57.7148 11.6732 56.7773 15.8008ZM89.1602 9.60938C88.0534 9.60938 87.0573 9.81771 86.1719 10.2344C85.2995 10.638 84.5833 11.1719 84.0234 11.8359C83.4766 12.5 83.0143 13.2878 82.6367 14.1992C82.2721 15.0977 82.0117 16.0156 81.8555 16.9531C81.7122 17.8776 81.6406 18.8411 81.6406 19.8438C81.6406 20.7943 81.7253 21.7318 81.8945 22.6562C82.0768 23.5677 82.3633 24.4466 82.7539 25.293C83.1445 26.1393 83.6198 26.8815 84.1797 27.5195C84.7526 28.1445 85.4557 28.6523 86.2891 29.043C87.1224 29.4206 88.0404 29.6094 89.043 29.6094C90.5143 29.6094 91.7969 29.3359 92.8906 28.7891C93.9844 28.2422 94.8438 27.4805 95.4688 26.5039C96.0938 25.5273 96.5495 24.4466 96.8359 23.2617C97.1354 22.0638 97.2852 20.7487 97.2852 19.3164C97.2852 17.8841 97.1354 16.5951 96.8359 15.4492C96.5365 14.3034 96.0742 13.2878 95.4492 12.4023C94.8242 11.5169 93.9779 10.8333 92.9102 10.3516C91.8555 9.85677 90.6055 9.60938 89.1602 9.60938ZM95.6445 2.36328L100.332 0.996094V21.1523C100.332 23.6523 100.443 25.5339 100.664 26.7969C100.885 28.0599 101.237 28.8607 101.719 29.1992C102.096 29.4857 102.285 29.6745 102.285 29.7656C102.285 29.9219 102.168 30 101.934 30C101.712 30 101.4 29.974 100.996 29.9219C100.605 29.8698 100.319 29.8438 100.137 29.8438C99.9154 29.8438 99.6029 29.8698 99.1992 29.9219C98.7956 29.974 98.5026 30 98.3203 30L97.3633 25.6055C95.3451 28.9388 92.5326 30.6055 88.9258 30.6055C86.8424 30.6055 84.9544 30.1497 83.2617 29.2383C81.569 28.3268 80.2344 27.0508 79.2578 25.4102C78.2943 23.7565 77.8125 21.901 77.8125 19.8438C77.8125 17.6172 78.3203 15.6445 79.3359 13.9258C80.3516 12.207 81.7383 10.8919 83.4961 9.98047C85.2669 9.05599 87.2526 8.59375 89.4531 8.59375C90.9766 8.59375 92.4349 8.95182 93.8281 9.66797C95.2214 10.3711 96.3997 11.2044 97.3633 12.168V6.60156C97.3633 4.49219 96.901 3.29427 95.9766 3.00781C95.5208 2.8776 95.293 2.76693 95.293 2.67578C95.293 2.55859 95.4102 2.45443 95.6445 2.36328ZM126.445 16.7969H108.574C108.405 17.6693 108.32 18.3268 108.32 18.7695C108.32 19.9805 108.411 21.1068 108.594 22.1484C108.776 23.1771 109.076 24.1471 109.492 25.0586C109.922 25.9701 110.462 26.7448 111.113 27.3828C111.764 28.0208 112.572 28.5221 113.535 28.8867C114.512 29.2513 115.618 29.4336 116.855 29.4336C117.988 29.4336 119.062 29.2318 120.078 28.8281C121.107 28.4115 121.953 27.9102 122.617 27.3242C123.294 26.7253 123.893 26.0807 124.414 25.3906C124.935 24.7005 125.319 24.0951 125.566 23.5742C125.814 23.0534 125.964 22.6367 126.016 22.3242C126.081 21.9466 126.25 21.7578 126.523 21.7578C126.745 21.7578 126.855 21.8815 126.855 22.1289C126.855 22.4154 126.784 22.7474 126.641 23.125C125.911 25.4557 124.518 27.2852 122.461 28.6133C120.404 29.9414 118.014 30.6055 115.293 30.6055C113.275 30.6055 111.432 30.0911 109.766 29.0625C108.112 28.0208 106.816 26.6406 105.879 24.9219C104.954 23.1901 104.492 21.3216 104.492 19.3164C104.492 18.0013 104.753 16.7057 105.273 15.4297C105.807 14.1536 106.543 13.0078 107.48 11.9922C108.431 10.9766 109.622 10.1562 111.055 9.53125C112.5 8.90625 114.069 8.59375 115.762 8.59375C117.077 8.59375 118.34 8.77604 119.551 9.14062C120.775 9.49219 121.875 10 122.852 10.6641C123.841 11.3281 124.655 12.194 125.293 13.2617C125.944 14.3164 126.328 15.4948 126.445 16.7969ZM108.652 15.8008H122.617C122.617 13.8997 121.999 12.3958 120.762 11.2891C119.525 10.1693 117.943 9.60938 116.016 9.60938C112.044 9.60938 109.59 11.6732 108.652 15.8008ZM142.598 8.59375L141.25 12.5977C141.211 12.5716 141.126 12.5065 140.996 12.4023C140.866 12.2852 140.768 12.2005 140.703 12.1484C140.638 12.0964 140.534 12.0247 140.391 11.9336C140.247 11.8424 140.117 11.7773 140 11.7383C139.896 11.6992 139.759 11.6602 139.59 11.6211C139.421 11.582 139.251 11.5625 139.082 11.5625C138.262 11.5625 137.559 11.8034 136.973 12.2852C136.4 12.7539 135.944 13.457 135.605 14.3945C135.267 15.319 135.02 16.3932 134.863 17.6172C134.72 18.8411 134.648 20.2734 134.648 21.9141V24.3555C134.648 25.9831 134.785 27.207 135.059 28.0273C135.332 28.8477 135.846 29.3034 136.602 29.3945C137.057 29.4336 137.285 29.5964 137.285 29.8828C137.285 30.013 137.181 30.0781 136.973 30.0781C136.803 30.0781 136.296 30.0651 135.449 30.0391C134.616 30.013 133.932 30 133.398 30C132.865 30 132.181 30.013 131.348 30.0391C130.514 30.0651 130.013 30.0781 129.844 30.0781C129.518 30.0781 129.355 30.013 129.355 29.8828C129.355 29.7135 129.583 29.5378 130.039 29.3555C130.677 29.043 131.107 28.4766 131.328 27.6562C131.562 26.8359 131.68 25.4948 131.68 23.6328V12.0312C131.68 11.3151 131.23 10.8008 130.332 10.4883C129.928 10.3841 129.727 10.2734 129.727 10.1562C129.727 10.0911 129.896 10.013 130.234 9.92188L134.395 8.80859V14.3945H134.492C135.404 12.3893 136.491 10.9245 137.754 10C139.03 9.0625 140.645 8.59375 142.598 8.59375Z" fill="white"/>
</svg>
