<svg xmlns="http://www.w3.org/2000/svg" viewBox="0 0 500 500"><g id="freepik--background-complete--inject-82"><rect y="382.4" width="500" height="0.25" style="fill:#ebebeb"></rect><rect x="416.78" y="398.49" width="33.12" height="0.25" style="fill:#ebebeb"></rect><rect x="322.53" y="401.21" width="8.69" height="0.25" style="fill:#ebebeb"></rect><rect x="396.59" y="389.21" width="19.19" height="0.25" style="fill:#ebebeb"></rect><rect x="52.46" y="390.89" width="43.19" height="0.25" style="fill:#ebebeb"></rect><rect x="104.56" y="390.89" width="6.33" height="0.25" style="fill:#ebebeb"></rect><rect x="131.47" y="395.11" width="93.68" height="0.25" style="fill:#ebebeb"></rect><path d="M237,337.8H43.91a5.71,5.71,0,0,1-5.7-5.71V60.66A5.71,5.71,0,0,1,43.91,55H237a5.71,5.71,0,0,1,5.71,5.71V332.09A5.71,5.71,0,0,1,237,337.8ZM43.91,55.2a5.46,5.46,0,0,0-5.45,5.46V332.09a5.46,5.46,0,0,0,5.45,5.46H237a5.47,5.47,0,0,0,5.46-5.46V60.66A5.47,5.47,0,0,0,237,55.2Z" style="fill:#ebebeb"></path><path d="M453.31,337.8H260.21a5.72,5.72,0,0,1-5.71-5.71V60.66A5.72,5.72,0,0,1,260.21,55h193.1A5.71,5.71,0,0,1,459,60.66V332.09A5.71,5.71,0,0,1,453.31,337.8ZM260.21,55.2a5.47,5.47,0,0,0-5.46,5.46V332.09a5.47,5.47,0,0,0,5.46,5.46h193.1a5.47,5.47,0,0,0,5.46-5.46V60.66a5.47,5.47,0,0,0-5.46-5.46Z" style="fill:#ebebeb"></path><path d="M179.44,345.82v36.7H80.56v-36.7h15V290.89s14.34-22.81,16-38.63c.86-7.9-2.31-22.59-6.12-37.4s-8.25-29.75-9.92-38.13C92.25,160,118,159.33,118,159.33s-11-20.37-5.81-31,17.15-13.21,26.11-5.83c2.65,2.18,4.08,6.28,4.78,11,1.67,11.18-.82,25.74-.82,25.74a60,60,0,0,1,14.35,1.44,21.11,21.11,0,0,1,6,2.37c14.48,9.08-13.8,89.37-1.08,104.29,10.3,12.07,3.53,59.46,3,78.49Z" style="fill:#f5f5f5"></path><path d="M130,219.65c-25.77,28.4-.6,32.91,0,36.2.41,2.24-20.9,37.25-34.42,59.15V290.89s14.34-22.81,16-38.63c.86-7.9-2.31-22.59-6.12-37.4,4.58-6,8.4-11.63,8.92-14.21,1.41-6.92-7.63-19.93-4.69-24.77,1.79-3,19.68-25.41,33.29-42.39,1.67,11.18-.82,25.74-.82,25.74a60,60,0,0,1,14.35,1.44c-9.24,13.57-17.78,27.41-16.14,30.11C143.79,196.36,155.77,191.25,130,219.65Z" style="fill:#fafafa"></path><path d="M125.28,268A163.91,163.91,0,0,1,99,265.85c-23.74-3.86-39.3-11.46-39.95-11.78l2.65-5.38c.61.3,61.67,29.66,123.78,0l2.59,5.41A145,145,0,0,1,125.28,268Z" style="fill:#e0e0e0"></path><path d="M252.25,268A163.68,163.68,0,0,1,226,265.85c-23.75-3.86-39.31-11.46-40-11.78l2.65-5.38c.61.3,61.67,29.66,123.79,0l2.58,5.41A145,145,0,0,1,252.25,268Z" style="fill:#e0e0e0"></path><path d="M377.66,268a163.78,163.78,0,0,1-26.25-2.14c-23.74-3.86-39.31-11.46-40-11.78l2.66-5.38c.61.3,61.67,29.66,123.78,0l2.59,5.41A145,145,0,0,1,377.66,268Z" style="fill:#e0e0e0"></path><rect x="55.97" y="243.38" width="8.85" height="139.14" style="fill:#f0f0f0"></rect><polygon points="74.15 381.34 64.82 378.34 55.97 378.34 46.64 381.34 46.64 382.52 74.15 382.52 74.15 381.34" style="fill:#e0e0e0"></polygon><rect x="182.37" y="243.38" width="8.85" height="139.14" style="fill:#f0f0f0"></rect><polygon points="200.56 381.34 191.22 378.34 182.38 378.34 173.04 381.34 173.04 382.52 200.56 382.52 200.56 381.34" style="fill:#e0e0e0"></polygon><rect x="308.78" y="243.38" width="8.85" height="139.14" style="fill:#f0f0f0"></rect><polygon points="326.96 381.34 317.63 378.34 308.78 378.34 299.44 381.34 299.44 382.52 326.96 382.52 326.96 381.34" style="fill:#e0e0e0"></polygon><rect x="435.18" y="243.38" width="8.85" height="139.14" style="fill:#f0f0f0"></rect><polygon points="453.36 381.34 444.03 378.34 435.18 378.34 425.85 381.34 425.85 382.52 453.36 382.52 453.36 381.34" style="fill:#e0e0e0"></polygon><path d="M208.56,130.29h-2.31l.86-.89a.64.64,0,0,0,0-.9.63.63,0,0,0-.9,0l-1.73,1.78h-1.11l1.89-2.4a.63.63,0,0,0-.11-.89.65.65,0,0,0-.9.1l-2.5,3.19h-5.87l4.19-4.18,4.2-.62a.63.63,0,0,0,.54-.72.64.64,0,0,0-.73-.54l-2.5.36.41-.4,2.62-.48a.64.64,0,0,0,.51-.75.63.63,0,0,0-.74-.51l-.8.14,1.25-1.24a.64.64,0,1,0-.91-.91l-1.63,1.64,0-1.24a.64.64,0,1,0-1.28,0l0,.82a.66.66,0,0,0-.46-.37.64.64,0,0,0-.75.51l-.62,3.37-4.23,4.23v-5.81l3.49-2.5a.64.64,0,1,0-.74-1l-2.75,2v-1.25l1.51-2.2a.64.64,0,0,0-.16-.89.63.63,0,0,0-.89.17l-.46.66v-1.76a.64.64,0,0,0-1.28,0v2.31l-.89-.86a.63.63,0,0,0-.9,0,.65.65,0,0,0,0,.91l1.78,1.72V122l-2.4-1.88a.64.64,0,1,0-.79,1l3.19,2.51v5.71l-4.24-4.24-.39-4.54a.64.64,0,0,0-1.27.11l.26,3-.91-.91-.11-2.65a.64.64,0,1,0-1.28,0l0,1.27-1-1a.65.65,0,0,0-.91,0,.67.67,0,0,0,0,.91l.81.8-.78-.11a.64.64,0,0,0-.18,1.27l2.45.33,1.06,1.07-2.87-.48a.64.64,0,1,0-.21,1.26l4.56.76h.07l4,4h-6.07l-3.14-3.24a.64.64,0,1,0-.91.89l2.27,2.35h-1.56l-2-1.8a.64.64,0,0,0-.86.94l.93.86h-1.39a.64.64,0,1,0,0,1.28h1.13l-.63.48a.64.64,0,0,0,.78,1l2-1.49h1.94l-2.52,2.68a.66.66,0,0,0,0,.91.7.7,0,0,0,.44.17.67.67,0,0,0,.47-.2l3.35-3.56h5.71l-4.32,4.32-4.15.13a.64.64,0,0,0-.62.66.63.63,0,0,0,.66.62l2.79-.09-1,1-2.65.1a.65.65,0,0,0-.62.67.64.64,0,0,0,.67.61l1.27-.05-1,1a.63.63,0,0,0,0,.9.64.64,0,0,0,.91,0l.8-.8-.11.78a.64.64,0,0,0,.55.72H186a.64.64,0,0,0,.63-.55l.33-2.45,1.07-1.07-.54,3.33a.64.64,0,0,0,.53.74h.1a.63.63,0,0,0,.63-.53l.82-5s0,0,0-.06l4.05-4.05v6.13l-3.27,3.68a.64.64,0,1,0,1,.84l2.31-2.6v1.37l-1.8,2a.64.64,0,0,0,.94.87l.86-.94v1.4a.64.64,0,1,0,1.28,0v-1.14l.48.63a.64.64,0,0,0,.89.12.63.63,0,0,0,.12-.89l-1.49-2v-1.52l1.93,2.67a.62.62,0,0,0,.52.27.63.63,0,0,0,.51-1L195,138.31s0,0,0,0V132.4l4.25,4.25-.07,4.45a.63.63,0,0,0,.63.65h0a.64.64,0,0,0,.64-.63l.05-3.21.69.7.49,2.62a.63.63,0,0,0,.63.52h.11a.64.64,0,0,0,.52-.74l-.15-.8,1.25,1.25a.63.63,0,0,0,.9,0,.63.63,0,0,0,0-.9l-1.63-1.64,1.23,0a.63.63,0,0,0,.63-.65.67.67,0,0,0-.65-.63l-2.47,0-.79-.78,3-.37a.64.64,0,0,0-.15-1.27l-4,.49-4.14-4.15h5.91l3.71,2.79a.62.62,0,0,0,.38.13.67.67,0,0,0,.52-.25.65.65,0,0,0-.13-.9L204,131.57h.59l2.19,1.51a.65.65,0,0,0,.89-.16.64.64,0,0,0-.16-.89l-.67-.46h1.77a.64.64,0,1,0,0-1.28Zm-7.57-8,0,1-.26.25Z" style="fill:#ebebeb"></path><path d="M118,213.11h-2.32l.86-.89a.64.64,0,1,0-.91-.89l-1.73,1.78h-1.11l1.89-2.4a.65.65,0,0,0-.11-.9.64.64,0,0,0-.9.11l-2.5,3.19h-5.87l4.19-4.19,4.2-.61a.64.64,0,1,0-.19-1.27l-2.5.37.4-.4,2.63-.49a.64.64,0,0,0-.23-1.26l-.8.15,1.25-1.25a.63.63,0,0,0,0-.9.65.65,0,0,0-.91,0l-1.63,1.63,0-1.23A.66.66,0,0,0,111,203a.64.64,0,0,0-.63.65v.82a.61.61,0,0,0-.45-.37.64.64,0,0,0-.75.51l-.63,3.37-4.22,4.22v-5.8l3.49-2.51a.63.63,0,1,0-.74-1l-2.75,2V203.6l1.51-2.19a.64.64,0,1,0-1.05-.73l-.46.67v-1.77a.64.64,0,1,0-1.28,0v2.32l-.89-.86a.64.64,0,0,0-.89.91l1.78,1.73v1.11l-2.4-1.89a.64.64,0,0,0-.9.11.65.65,0,0,0,.11.9l3.19,2.5v5.72l-4.24-4.24-.39-4.54a.64.64,0,1,0-1.27.11l.26,3-.91-.91-.11-2.66a.64.64,0,0,0-1.28.05l0,1.27-1-1a.65.65,0,0,0-.91,0,.63.63,0,0,0,0,.9l.8.8-.78-.1a.64.64,0,0,0-.72.55.65.65,0,0,0,.55.72l2.45.33,1.06,1.06-2.87-.47a.64.64,0,0,0-.74.52.64.64,0,0,0,.53.74l4.56.75h.07l4,4H96.18L93,209.87a.64.64,0,0,0-.91.89l2.27,2.35H92.83l-2-1.8a.63.63,0,0,0-.9,0,.65.65,0,0,0,0,.91l.93.86H89.56a.64.64,0,0,0,0,1.28h1.13l-.63.47a.65.65,0,0,0-.12.9.66.66,0,0,0,.51.25.65.65,0,0,0,.39-.13l2-1.49h1.94l-2.52,2.68a.64.64,0,0,0,.46,1.08.67.67,0,0,0,.47-.2l3.35-3.56h5.71l-4.32,4.31-4.16.14a.63.63,0,0,0-.61.66.62.62,0,0,0,.66.62l2.79-.1-1,1-2.66.11a.64.64,0,0,0-.61.66.65.65,0,0,0,.67.62l1.27-.05-1,1a.64.64,0,0,0,.45,1.09.63.63,0,0,0,.45-.18l.81-.81-.11.79a.63.63,0,0,0,.55.71h.08a.65.65,0,0,0,.64-.55l.33-2.45,1.07-1.07L97,224.23a.63.63,0,0,0,.53.73h.1a.63.63,0,0,0,.63-.54l.81-5s0,0,0-.06l4-4.05v6.12l-3.27,3.68a.63.63,0,0,0,0,.9.63.63,0,0,0,.9-.05l2.32-2.6v1.36l-1.8,2a.63.63,0,0,0,0,.9.65.65,0,0,0,.91,0l.86-.93V228a.64.64,0,0,0,1.28,0v-1.13l.48.63a.64.64,0,0,0,.89.12.64.64,0,0,0,.12-.9l-1.49-2v-1.52l1.93,2.67a.64.64,0,0,0,.52.27.63.63,0,0,0,.37-.12.64.64,0,0,0,.14-.9l-2.92-4,0,0v-5.87l4.25,4.25-.07,4.45a.64.64,0,0,0,.63.65h0a.65.65,0,0,0,.64-.63l0-3.22.7.7.49,2.63a.63.63,0,0,0,.62.52h.12a.64.64,0,0,0,.51-.75l-.14-.79,1.25,1.25a.63.63,0,0,0,.45.18.64.64,0,0,0,.45-1.09l-1.63-1.63,1.23,0a.64.64,0,0,0,.63-.65.67.67,0,0,0-.65-.63l-2.47,0-.79-.79,3-.36a.64.64,0,1,0-.15-1.27l-4,.48-4.15-4.14h5.92l3.71,2.79a.6.6,0,0,0,.38.13.62.62,0,0,0,.51-.26.63.63,0,0,0-.12-.89l-2.35-1.77H114l2.19,1.51a.61.61,0,0,0,.36.11.64.64,0,0,0,.37-1.16l-.67-.46H118a.64.64,0,0,0,0-1.28Zm-7.57-8,0,1-.26.26Z" style="fill:#ebebeb"></path><path d="M401.64,94.42h-1.81l.67-.7a.5.5,0,0,0-.72-.7l-1.35,1.4h-.88L399,92.54a.5.5,0,0,0-.08-.71.51.51,0,0,0-.71.09l-2,2.5h-4.61L395,91.13l3.3-.48a.5.5,0,0,0-.15-1l-2,.28.31-.31,2.06-.38a.51.51,0,0,0,.41-.59.5.5,0,0,0-.59-.4l-.62.11,1-1a.51.51,0,0,0,0-.71.5.5,0,0,0-.71,0L396.7,88V87a.52.52,0,0,0-.51-.49.5.5,0,0,0-.5.51v.65a.48.48,0,0,0-.36-.3.5.5,0,0,0-.58.4l-.5,2.65-3.32,3.32V89.17l2.75-2a.5.5,0,0,0,.11-.7.51.51,0,0,0-.7-.11l-2.16,1.55V87l1.19-1.72a.5.5,0,1,0-.83-.57l-.36.52V83.79a.5.5,0,0,0-1,0v1.82l-.7-.68a.51.51,0,0,0-.7.73l1.4,1.35v.87L388,86.4a.5.5,0,0,0-.62.79l2.51,2v4.49l-3.33-3.33-.31-3.57a.5.5,0,0,0-1,.09l.2,2.38-.71-.72-.09-2.08a.5.5,0,1,0-1,0l0,1-.77-.78a.5.5,0,0,0-.71.71l.63.63-.62-.08a.49.49,0,0,0-.56.43.49.49,0,0,0,.43.56l1.92.26.84.84-2.26-.37a.5.5,0,0,0-.58.41.51.51,0,0,0,.41.58l3.59.59h.05l3.18,3.17h-4.77L382,91.88a.5.5,0,0,0-.71,0,.52.52,0,0,0,0,.72l1.79,1.84h-1.23L380.34,93a.5.5,0,1,0-.68.73l.74.68h-1.1a.51.51,0,0,0,0,1h.89l-.49.37a.5.5,0,0,0-.1.7.51.51,0,0,0,.4.2.5.5,0,0,0,.31-.1l1.54-1.17h1.53l-2,2.1a.5.5,0,0,0,0,.71.47.47,0,0,0,.35.14.48.48,0,0,0,.36-.16l2.64-2.79h4.48l-3.39,3.39-3.27.11a.5.5,0,0,0,0,1l2.19-.07-.8.8-2.09.08a.51.51,0,0,0-.48.52.49.49,0,0,0,.52.48l1,0-.77.78a.5.5,0,0,0,0,.71.49.49,0,0,0,.35.15.51.51,0,0,0,.36-.15l.63-.63-.08.61a.5.5,0,0,0,.43.57h.06a.5.5,0,0,0,.5-.43l.26-1.92.84-.84-.42,2.61a.51.51,0,0,0,.41.58h.08a.5.5,0,0,0,.5-.42l.64-3.93v0l3.18-3.18V101l-2.57,2.89a.5.5,0,1,0,.75.67l1.82-2v1.08l-1.42,1.53a.5.5,0,0,0,0,.71.5.5,0,0,0,.71,0l.68-.73v1.1a.5.5,0,0,0,1,0v-.9l.38.5a.48.48,0,0,0,.7.09.5.5,0,0,0,.1-.7l-1.18-1.54v-1.2l1.52,2.1a.49.49,0,0,0,.41.21.46.46,0,0,0,.29-.1.49.49,0,0,0,.11-.7L391,100.72l0,0V96.08l3.34,3.34,0,3.5a.5.5,0,0,0,.49.51h0a.5.5,0,0,0,.5-.5l0-2.52.55.55.38,2.06a.5.5,0,0,0,.49.41h.1a.5.5,0,0,0,.4-.59l-.12-.62,1,1a.51.51,0,0,0,.36.15.47.47,0,0,0,.35-.15.5.5,0,0,0,0-.71l-1.28-1.29h1a.5.5,0,0,0,.5-.51.53.53,0,0,0-.51-.49l-1.95,0-.62-.62,2.38-.29a.49.49,0,0,0,.44-.56.51.51,0,0,0-.56-.44l-3.16.38-3.26-3.25h4.65l2.91,2.19a.52.52,0,0,0,.31.1.51.51,0,0,0,.4-.2.5.5,0,0,0-.1-.7L398,95.43h.46l1.73,1.18a.51.51,0,0,0,.7-.12.5.5,0,0,0-.13-.7l-.52-.36h1.38a.51.51,0,1,0,0-1Zm-5.94-6.28V89l-.2.2Z" style="fill:#ebebeb"></path><path d="M236.41,203.74H235l.53-.54a.38.38,0,0,0,0-.55.39.39,0,0,0-.55,0l-1.06,1.09h-.68l1.16-1.47a.39.39,0,1,0-.62-.48l-1.53,2h-3.59l2.56-2.56,2.57-.38a.39.39,0,1,0-.11-.77l-1.53.22.24-.24,1.61-.3a.39.39,0,0,0,.31-.46.39.39,0,0,0-.45-.31l-.49.09.76-.76a.39.39,0,0,0,0-.56.39.39,0,0,0-.55,0l-1,1V198a.41.41,0,0,0-.4-.39.39.39,0,0,0-.39.4v.5a.41.41,0,0,0-.28-.23.39.39,0,0,0-.45.32l-.39,2.06-2.59,2.59v-3.56l2.14-1.53a.39.39,0,0,0,.09-.55.39.39,0,0,0-.54-.09l-1.69,1.21v-.77l.93-1.34a.4.4,0,0,0-.1-.55.4.4,0,0,0-.54.1l-.29.41v-1.08a.39.39,0,0,0-.39-.39.4.4,0,0,0-.39.39v1.42l-.54-.53a.39.39,0,1,0-.55.56l1.09,1.06v.68l-1.47-1.16a.39.39,0,0,0-.48.62l1.95,1.53v3.5l-2.59-2.59-.24-2.78a.4.4,0,0,0-.43-.36.39.39,0,0,0-.35.42l.16,1.86-.56-.56-.07-1.62a.39.39,0,1,0-.78,0l0,.78-.6-.61a.39.39,0,0,0-.55,0,.39.39,0,0,0,0,.56l.49.49-.48-.07a.39.39,0,0,0-.44.34.39.39,0,0,0,.33.44l1.5.2.65.65-1.76-.29a.4.4,0,0,0-.45.32.39.39,0,0,0,.32.45l2.8.47h0l2.47,2.47h-3.71l-1.92-2a.39.39,0,0,0-.57.54l1.4,1.44h-1l-1.2-1.1a.39.39,0,1,0-.53.57l.57.53H219a.4.4,0,0,0,0,.79h.69l-.38.29a.39.39,0,0,0-.07.55.37.37,0,0,0,.31.15.4.4,0,0,0,.23-.08l1.21-.91h1.19l-1.55,1.64a.4.4,0,0,0,.29.66.37.37,0,0,0,.28-.13l2.05-2.17h3.5l-2.65,2.64-2.54.08a.39.39,0,0,0-.38.41.38.38,0,0,0,.41.37l1.7-.05-.62.62-1.62.07a.38.38,0,0,0-.38.4.39.39,0,0,0,.41.38l.77,0-.6.6a.4.4,0,0,0,.28.67.36.36,0,0,0,.27-.12l.5-.49-.07.48a.39.39,0,0,0,.34.44h.05a.41.41,0,0,0,.39-.34l.2-1.5.66-.66-.34,2a.39.39,0,0,0,.33.45h.06a.4.4,0,0,0,.39-.33l.5-3.07s0,0,0,0l2.48-2.48v3.75l-2,2.25a.39.39,0,0,0,0,.55.38.38,0,0,0,.55,0l1.42-1.6v.84l-1.1,1.2a.39.39,0,0,0,.57.53l.53-.57v.85a.39.39,0,0,0,.39.39.38.38,0,0,0,.39-.39v-.69l.3.38a.37.37,0,0,0,.31.15.39.39,0,0,0,.31-.62l-.92-1.21V210l1.19,1.64a.38.38,0,0,0,.31.16.39.39,0,0,0,.32-.62l-1.79-2.48,0,0V205l2.61,2.6,0,2.73a.39.39,0,0,0,.39.4h0a.4.4,0,0,0,.4-.39l0-2,.42.42.3,1.61a.39.39,0,0,0,.38.32h.08a.39.39,0,0,0,.31-.45l-.09-.49.76.76a.39.39,0,1,0,.56-.55l-1-1h.75a.39.39,0,1,0,0-.78l-1.51,0-.48-.48,1.85-.22a.4.4,0,0,0,.34-.44.38.38,0,0,0-.43-.34l-2.47.29-2.54-2.53h3.63l2.27,1.7a.34.34,0,0,0,.23.08.37.37,0,0,0,.31-.15.39.39,0,0,0-.07-.55l-1.44-1.08H234l1.34.92a.38.38,0,0,0,.22.07.4.4,0,0,0,.33-.17.4.4,0,0,0-.1-.54l-.41-.28h1.08a.4.4,0,0,0,0-.79Zm-4.63-4.89v.63l-.16.16Z" style="fill:#ebebeb"></path><path d="M93.46,100.66H92.05l.52-.54a.39.39,0,0,0-.56-.54L91,100.66h-.68l1.15-1.46a.4.4,0,0,0-.07-.55.39.39,0,0,0-.55.06l-1.53,2H85.69l2.56-2.56,2.57-.37a.39.39,0,0,0-.11-.78l-1.53.23.25-.25,1.6-.3a.4.4,0,0,0,.32-.45.4.4,0,0,0-.46-.32L90.4,96l.77-.76a.4.4,0,0,0-.56-.56l-1,1v-.75a.4.4,0,0,0-.4-.39.39.39,0,0,0-.38.4v.5a.43.43,0,0,0-.28-.23.39.39,0,0,0-.46.32l-.39,2.06-2.58,2.59V96.58L87.26,95a.39.39,0,0,0,.09-.54.39.39,0,0,0-.55-.09l-1.68,1.2v-.77L86,93.5a.39.39,0,1,0-.64-.44l-.28.4V92.38a.4.4,0,0,0-.79,0V93.8l-.54-.53a.39.39,0,0,0-.55,0,.38.38,0,0,0,0,.55l1.08,1.06v.68l-1.46-1.15a.39.39,0,0,0-.49.61l2,1.54v3.5l-2.59-2.6-.24-2.78a.39.39,0,1,0-.78.07l.16,1.85-.56-.56-.06-1.62a.41.41,0,0,0-.41-.38.4.4,0,0,0-.38.41l0,.78-.61-.61a.39.39,0,0,0-.55,0,.4.4,0,0,0,0,.56l.49.49-.48-.07a.39.39,0,0,0-.1.78l1.49.2.66.65L78.64,97a.4.4,0,0,0-.45.32.39.39,0,0,0,.33.45l2.79.47h0l2.48,2.47H80.11l-1.92-2a.39.39,0,1,0-.56.55L79,100.66h-1l-1.19-1.1a.4.4,0,0,0-.56,0,.41.41,0,0,0,0,.56l.57.52h-.86a.4.4,0,0,0,0,.79h.7l-.39.29a.4.4,0,0,0-.07.55.39.39,0,0,0,.31.15.37.37,0,0,0,.24-.08l1.2-.91h1.19l-1.55,1.64a.38.38,0,0,0,0,.55.4.4,0,0,0,.27.11.38.38,0,0,0,.28-.12l2.06-2.18H83.8l-2.64,2.64-2.55.08a.41.41,0,0,0-.38.41.39.39,0,0,0,.41.38l1.71-.06-.63.62-1.62.07a.39.39,0,1,0,0,.78l.78,0-.61.6a.4.4,0,0,0,0,.56.41.41,0,0,0,.56,0l.49-.49-.07.47a.38.38,0,0,0,.34.44h0a.4.4,0,0,0,.39-.34l.2-1.5.66-.65-.33,2a.38.38,0,0,0,.32.45H81a.4.4,0,0,0,.39-.33l.5-3.07s0,0,0,0L84.33,102v3.75l-2,2.25a.39.39,0,0,0,.59.52L84.33,107v.83l-1.1,1.2a.38.38,0,0,0,0,.55.4.4,0,0,0,.56,0l.52-.57v.85a.4.4,0,0,0,.79,0v-.69l.29.38a.4.4,0,0,0,.31.16.43.43,0,0,0,.24-.08A.4.4,0,0,0,86,109l-.91-1.21v-.93l1.18,1.64a.36.36,0,0,0,.32.16.34.34,0,0,0,.22-.07.39.39,0,0,0,.09-.55l-1.79-2.48,0,0V102l2.6,2.6,0,2.72a.38.38,0,0,0,.38.4h0a.39.39,0,0,0,.39-.38l0-2,.43.43.29,1.6a.4.4,0,0,0,.39.32h.07a.4.4,0,0,0,.31-.46l-.09-.49.77.77a.39.39,0,0,0,.27.11.43.43,0,0,0,.28-.11.4.4,0,0,0,0-.56l-1-1H91a.38.38,0,0,0,.38-.4.4.4,0,0,0-.4-.38l-1.51,0-.48-.48,1.85-.22a.39.39,0,0,0-.09-.78l-2.47.3-2.53-2.54h3.62l2.27,1.71a.4.4,0,0,0,.23.08.42.42,0,0,0,.32-.16.4.4,0,0,0-.08-.55l-1.44-1.08H91l1.34.92a.39.39,0,0,0,.23.07.4.4,0,0,0,.32-.17.39.39,0,0,0-.1-.54l-.41-.28h1.08a.4.4,0,0,0,0-.79Zm-4.63-4.89v.64l-.16.15Z" style="fill:#ebebeb"></path><path d="M307.4,96.09H306l.53-.54a.39.39,0,0,0,0-.55.4.4,0,0,0-.56,0l-1.05,1.09h-.68l1.15-1.47a.39.39,0,0,0-.06-.55.4.4,0,0,0-.55.07l-1.54,2h-3.59l2.57-2.56,2.57-.38a.39.39,0,0,0,.33-.44.4.4,0,0,0-.45-.33l-1.53.22.25-.24,1.61-.3a.39.39,0,1,0-.15-.77l-.48.09.76-.76a.4.4,0,0,0,0-.56.39.39,0,0,0-.55,0l-1,1,0-.75a.4.4,0,0,0-.39-.39.39.39,0,0,0-.39.4v.5a.41.41,0,0,0-.28-.23.4.4,0,0,0-.46.32L301.65,93l-2.59,2.59V92l2.14-1.53a.39.39,0,0,0,.09-.55.41.41,0,0,0-.55-.09L299.06,91v-.77l.93-1.34a.4.4,0,1,0-.65-.45l-.28.41V87.81a.39.39,0,0,0-.78,0v1.42l-.55-.53a.39.39,0,0,0-.54.56l1.09,1.06V91l-1.47-1.16a.39.39,0,0,0-.48.62L298.28,92v3.5l-2.6-2.59-.24-2.78a.39.39,0,0,0-.78.06l.16,1.86-.56-.56-.06-1.62a.41.41,0,0,0-.41-.38.39.39,0,0,0-.37.41l0,.78-.6-.61a.4.4,0,0,0-.56.56l.49.49L292.3,91a.39.39,0,0,0-.44.34.41.41,0,0,0,.34.44l1.5.2.65.65-1.76-.29a.4.4,0,0,0-.45.32.38.38,0,0,0,.32.45l2.79.47h.05l2.47,2.47h-3.72l-1.92-2a.39.39,0,0,0-.56.54L293,96.09h-1L290.81,95a.39.39,0,0,0-.53.57l.57.53H290a.4.4,0,0,0,0,.79h.69l-.38.29a.4.4,0,0,0-.08.55.4.4,0,0,0,.31.15.41.41,0,0,0,.24-.08l1.2-.91h1.19l-1.54,1.64a.39.39,0,0,0,0,.55.4.4,0,0,0,.27.11.4.4,0,0,0,.29-.12l2.05-2.18h3.49l-2.64,2.64-2.54.08a.39.39,0,0,0-.38.41.37.37,0,0,0,.4.37l1.71,0-.62.62L292,101a.39.39,0,0,0,0,.78l.78,0-.6.6a.38.38,0,0,0,0,.55.36.36,0,0,0,.27.12.39.39,0,0,0,.28-.12l.49-.49-.06.48a.39.39,0,0,0,.33.44h.05A.39.39,0,0,0,294,103l.21-1.5.65-.66-.33,2a.38.38,0,0,0,.32.45h.07a.39.39,0,0,0,.38-.33l.5-3.07v0l2.48-2.48v3.75l-2,2.25a.39.39,0,0,0,0,.55.38.38,0,0,0,.55,0l1.42-1.6v.84l-1.11,1.2a.39.39,0,0,0,0,.55.38.38,0,0,0,.55,0l.53-.57v.85a.39.39,0,1,0,.78,0v-.69l.29.38a.4.4,0,0,0,.31.15.35.35,0,0,0,.24-.08.38.38,0,0,0,.08-.54l-.92-1.21v-.93l1.18,1.64a.42.42,0,0,0,.32.16.39.39,0,0,0,.23-.07.41.41,0,0,0,.09-.55L299.09,101l0,0v-3.6l2.6,2.6,0,2.73a.39.39,0,0,0,.38.4h0a.39.39,0,0,0,.39-.38l0-2,.43.42.3,1.61a.39.39,0,0,0,.38.32h.07a.39.39,0,0,0,.32-.45l-.09-.49.76.76a.39.39,0,0,0,.28.12.36.36,0,0,0,.27-.12.38.38,0,0,0,0-.55l-1-1h.76a.39.39,0,0,0,.39-.4.41.41,0,0,0-.4-.38l-1.52,0-.48-.48,1.86-.22a.4.4,0,0,0,.34-.44.39.39,0,0,0-.44-.34l-2.46.29-2.54-2.53h3.62l2.27,1.7a.35.35,0,0,0,.24.08A.39.39,0,0,0,306,98l-1.44-1.08h.36l1.35.92a.36.36,0,0,0,.22.07.39.39,0,0,0,.22-.71l-.41-.28h1.08a.4.4,0,1,0,0-.79Zm-4.63-4.89v.63l-.15.16Z" style="fill:#ebebeb"></path><path d="M430.85,158.91h-1.42l.53-.54a.39.39,0,1,0-.56-.55l-1.06,1.09h-.68l1.16-1.47a.39.39,0,1,0-.62-.48l-1.53,1.95h-3.59l2.56-2.56,2.57-.38a.39.39,0,0,0,.33-.44.39.39,0,0,0-.44-.33l-1.53.22.24-.25,1.61-.29a.4.4,0,0,0,.31-.46.39.39,0,0,0-.45-.31l-.49.09.76-.77a.38.38,0,0,0,0-.55.39.39,0,0,0-.55,0l-1,1v-.76a.4.4,0,0,0-.4-.38.39.39,0,0,0-.39.4v.5a.38.38,0,0,0-.73.08l-.39,2.07-2.59,2.58v-3.55l2.14-1.53a.39.39,0,0,0,.09-.55.38.38,0,0,0-.54-.09l-1.69,1.21v-.77l.93-1.34a.4.4,0,0,0-.1-.55.39.39,0,0,0-.54.1l-.29.41v-1.08a.38.38,0,0,0-.39-.39.39.39,0,0,0-.39.39V152l-.54-.52a.39.39,0,1,0-.55.56l1.09,1v.68l-1.47-1.15a.39.39,0,0,0-.48.62l2,1.53v3.5l-2.59-2.59-.24-2.78a.4.4,0,0,0-.43-.36.39.39,0,0,0-.35.42l.16,1.86-.56-.56-.07-1.63a.38.38,0,0,0-.4-.37.39.39,0,0,0-.38.4l0,.78-.6-.6a.39.39,0,0,0-.55,0,.38.38,0,0,0,0,.55l.49.49-.48-.06a.39.39,0,0,0-.44.33.38.38,0,0,0,.33.44l1.5.21.65.65L416,155.2a.39.39,0,0,0-.45.32.4.4,0,0,0,.32.45l2.8.46h0l2.47,2.47H417.5l-1.92-2a.39.39,0,0,0-.57.54l1.4,1.44h-1l-1.2-1.1a.39.39,0,1,0-.53.57l.57.53h-.85a.39.39,0,0,0-.39.39.38.38,0,0,0,.39.39h.69l-.38.29a.4.4,0,0,0-.07.55.38.38,0,0,0,.31.16.4.4,0,0,0,.23-.08l1.21-.92h1.19l-1.55,1.65a.4.4,0,0,0,.28.66.41.41,0,0,0,.29-.13l2.05-2.18h3.5l-2.65,2.64-2.54.09a.39.39,0,0,0-.38.4.38.38,0,0,0,.41.38l1.7-.06-.62.63-1.62.06a.4.4,0,0,0,0,.79l.77,0-.6.61a.4.4,0,0,0,.28.67.36.36,0,0,0,.27-.12l.5-.49-.07.48a.39.39,0,0,0,.34.44h.05a.4.4,0,0,0,.39-.34l.2-1.49.65-.66-.33,2a.4.4,0,0,0,.33.45h.06a.4.4,0,0,0,.39-.33l.49-3.06s0,0,0,0l2.48-2.48V164l-2,2.26a.38.38,0,0,0,0,.55.39.39,0,0,0,.55,0l1.42-1.6V166l-1.1,1.19a.4.4,0,0,0,0,.56.4.4,0,0,0,.55,0l.53-.58V168a.4.4,0,0,0,.39.39.39.39,0,0,0,.39-.39v-.7l.3.39a.37.37,0,0,0,.31.15.4.4,0,0,0,.23-.08.39.39,0,0,0,.08-.55l-.92-1.2v-.93l1.18,1.64a.42.42,0,0,0,.32.16.4.4,0,0,0,.23-.08.38.38,0,0,0,.09-.54l-1.79-2.48,0,0v-3.6l2.6,2.6,0,2.73a.4.4,0,0,0,.39.4h0a.4.4,0,0,0,.4-.39l0-2,.42.43.3,1.61a.39.39,0,0,0,.38.32h.08a.39.39,0,0,0,.31-.46l-.09-.48.76.76a.39.39,0,1,0,.56-.55l-1-1h.75a.41.41,0,0,0,.39-.4.41.41,0,0,0-.4-.39l-1.51,0-.49-.48,1.86-.23a.38.38,0,0,0,.34-.43.38.38,0,0,0-.43-.34l-2.47.29-2.54-2.54h3.63L429,161.4a.34.34,0,0,0,.23.08.36.36,0,0,0,.31-.16.38.38,0,0,0-.07-.54L428,159.69h.36l1.34.93a.38.38,0,0,0,.22.07.4.4,0,0,0,.33-.17.41.41,0,0,0-.1-.55l-.41-.28h1.08a.39.39,0,0,0,.39-.39A.4.4,0,0,0,430.85,158.91Zm-4.63-4.9v.64l-.16.16Z" style="fill:#ebebeb"></path><path d="M376.62,238.49h-1l.38-.4a.28.28,0,0,0-.41-.39l-.76.79h-.5l.84-1.07a.27.27,0,0,0,0-.39.29.29,0,0,0-.4,0l-1.11,1.42H371l1.86-1.86,1.86-.27a.28.28,0,1,0-.08-.56l-1.11.16.18-.18,1.16-.21a.28.28,0,0,0-.1-.56l-.35.07.55-.56a.28.28,0,1,0-.4-.4l-.73.73v-.55a.29.29,0,0,0-.29-.28.28.28,0,0,0-.28.29v.36a.24.24,0,0,0-.2-.16.28.28,0,0,0-.33.22l-.28,1.5-1.87,1.87v-2.57l1.55-1.11a.28.28,0,0,0,.06-.4.27.27,0,0,0-.39-.06l-1.22.87v-.56l.67-1a.28.28,0,0,0-.07-.39.29.29,0,0,0-.4.07l-.2.3v-.79a.29.29,0,0,0-.57,0v1l-.39-.38a.28.28,0,0,0-.4,0,.28.28,0,0,0,0,.4l.78.77v.49L369,234a.29.29,0,0,0-.35.45l1.41,1.11v2.53l-1.88-1.87-.17-2a.29.29,0,0,0-.31-.26.29.29,0,0,0-.25.31l.11,1.34-.4-.4-.05-1.18a.29.29,0,0,0-.29-.27.3.3,0,0,0-.28.3l0,.56-.44-.44a.28.28,0,1,0-.4.4l.36.36-.35,0a.28.28,0,1,0-.08.56l1.09.15.47.47-1.28-.21a.27.27,0,0,0-.32.23.28.28,0,0,0,.23.33l2,.33h0l1.8,1.79H367l-1.4-1.44a.28.28,0,0,0-.4.4l1,1h-.7l-.86-.8a.28.28,0,0,0-.4,0,.3.3,0,0,0,0,.41l.42.38H364a.28.28,0,0,0,0,.56h.5l-.28.22a.27.27,0,0,0-.05.39.25.25,0,0,0,.22.11.31.31,0,0,0,.18-.05l.87-.67h.86l-1.12,1.19a.28.28,0,0,0,0,.4.24.24,0,0,0,.19.08.29.29,0,0,0,.21-.09l1.49-1.58h2.53L367.71,241l-1.84.06a.27.27,0,0,0-.27.29.26.26,0,0,0,.29.27l1.24,0-.45.46-1.18,0a.29.29,0,0,0,0,.57l.56,0-.43.43a.28.28,0,0,0,0,.4.27.27,0,0,0,.2.09.28.28,0,0,0,.2-.09l.35-.35,0,.34a.28.28,0,0,0,.24.32h0a.29.29,0,0,0,.28-.25l.15-1.08.47-.48-.24,1.48a.27.27,0,0,0,.23.32h.05a.28.28,0,0,0,.28-.24l.36-2.22v0l1.79-1.79v2.71l-1.45,1.63a.28.28,0,0,0,0,.4.28.28,0,0,0,.4,0l1-1.15v.6l-.8.87a.29.29,0,0,0,0,.4.28.28,0,0,0,.4,0l.38-.41v.61a.29.29,0,1,0,.57,0v-.5l.21.28a.3.3,0,0,0,.23.11.28.28,0,0,0,.22-.45l-.66-.87V243l.86,1.19a.28.28,0,0,0,.22.11.26.26,0,0,0,.17-.05.27.27,0,0,0,.06-.39L370.6,242h0v-2.61l1.88,1.89,0,2a.28.28,0,0,0,.28.29h0a.29.29,0,0,0,.28-.28l0-1.43.31.31.22,1.17a.28.28,0,0,0,.27.23h.06a.27.27,0,0,0,.22-.33l-.06-.35.55.55a.28.28,0,0,0,.2.09.27.27,0,0,0,.2-.09.28.28,0,0,0,0-.4l-.72-.72h.55a.27.27,0,0,0,.27-.29.29.29,0,0,0-.28-.28l-1.1,0-.35-.35,1.34-.16a.28.28,0,1,0-.06-.56l-1.79.21L371,239.05h2.63l1.64,1.24a.27.27,0,0,0,.17.06.3.3,0,0,0,.23-.11.29.29,0,0,0-.06-.4l-1-.79h.26l1,.67a.25.25,0,0,0,.16.05.3.3,0,0,0,.24-.12.28.28,0,0,0-.08-.39l-.29-.21h.78a.28.28,0,1,0,0-.56Zm-3.35-3.55v.46l-.12.12Z" style="fill:#ebebeb"></path><path d="M417.83,294.42h-1.42l.53-.54a.39.39,0,0,0-.56-.55l-1.06,1.09h-.68L415.8,293a.39.39,0,1,0-.62-.48l-1.53,1.95h-3.59l2.56-2.56,2.57-.38a.39.39,0,1,0-.11-.77l-1.54.22.25-.24,1.61-.3a.39.39,0,0,0,.31-.46.39.39,0,0,0-.45-.31l-.49.09.76-.77a.38.38,0,0,0,0-.55.39.39,0,0,0-.55,0l-1,1v-.75a.41.41,0,0,0-.4-.39.39.39,0,0,0-.39.4v.5a.41.41,0,0,0-.28-.23.4.4,0,0,0-.46.32l-.38,2.06-2.59,2.59v-3.56l2.14-1.53a.39.39,0,0,0,.09-.55.39.39,0,0,0-.54-.09l-1.69,1.21v-.77l.93-1.34a.4.4,0,0,0-.1-.55.41.41,0,0,0-.55.1l-.28.41v-1.08a.39.39,0,0,0-.39-.39.4.4,0,0,0-.39.39v1.42l-.54-.53a.39.39,0,1,0-.55.56l1.09,1.06v.68l-1.47-1.16a.39.39,0,0,0-.48.62l1.95,1.53v3.5l-2.6-2.59-.23-2.78a.4.4,0,0,0-.43-.36.39.39,0,0,0-.35.42l.16,1.86-.56-.56-.07-1.62a.4.4,0,0,0-.4-.38.39.39,0,0,0-.38.41l0,.77-.6-.6a.4.4,0,0,0-.56,0,.39.39,0,0,0,0,.55l.5.5-.48-.07a.39.39,0,0,0-.44.34.39.39,0,0,0,.33.44l1.5.2.65.65-1.76-.29a.39.39,0,0,0-.45.32.38.38,0,0,0,.32.45l2.8.46h0l2.47,2.47h-3.71l-1.92-2a.39.39,0,0,0-.57.54l1.4,1.44h-1l-1.2-1.1a.39.39,0,0,0-.53.57l.57.53h-.85a.39.39,0,0,0-.39.39.38.38,0,0,0,.39.39h.69l-.38.3a.39.39,0,0,0-.07.55.37.37,0,0,0,.31.15.4.4,0,0,0,.23-.08l1.21-.92h1.19l-1.55,1.65a.4.4,0,0,0,.28.66.37.37,0,0,0,.29-.13l2.05-2.18h3.5l-2.65,2.65-2.54.08a.39.39,0,0,0-.38.41.38.38,0,0,0,.4.37l1.71,0-.62.62-1.63.07a.38.38,0,0,0-.37.4.39.39,0,0,0,.41.38l.77,0-.6.6a.4.4,0,0,0,.28.67.36.36,0,0,0,.27-.12l.49-.49-.06.48a.39.39,0,0,0,.33.44H404a.39.39,0,0,0,.38-.34l.21-1.5.65-.66-.33,2a.39.39,0,0,0,.33.45h.06a.39.39,0,0,0,.38-.33l.5-3.07s0,0,0,0l2.48-2.48v3.75l-2,2.25a.38.38,0,0,0,0,.55.39.39,0,0,0,.55,0l1.42-1.6v.84l-1.1,1.2a.39.39,0,0,0,.57.53l.53-.57v.85a.4.4,0,0,0,.39.39.39.39,0,0,0,.39-.39v-.7l.3.39a.37.37,0,0,0,.31.15.34.34,0,0,0,.23-.08.39.39,0,0,0,.08-.55l-.92-1.2v-.93l1.18,1.64a.42.42,0,0,0,.32.16.39.39,0,0,0,.32-.62l-1.79-2.48,0,0v-3.6l2.6,2.6,0,2.73a.39.39,0,0,0,.39.4h0a.38.38,0,0,0,.39-.39l0-2,.43.42.3,1.61a.39.39,0,0,0,.38.32H414a.39.39,0,0,0,.32-.45l-.09-.49.76.76a.39.39,0,1,0,.56-.55l-1-1h.75a.4.4,0,0,0,.39-.4.4.4,0,0,0-.4-.38l-1.51,0-.49-.48,1.86-.22a.4.4,0,0,0,.34-.44.38.38,0,0,0-.43-.34l-2.47.29-2.54-2.54h3.62l2.27,1.71a.38.38,0,0,0,.24.08.37.37,0,0,0,.31-.15.39.39,0,0,0-.07-.55L415,295.2h.36l1.34.93a.38.38,0,0,0,.22.07.4.4,0,0,0,.33-.17.39.39,0,0,0-.11-.54l-.4-.29h1.08a.39.39,0,0,0,.39-.39A.4.4,0,0,0,417.83,294.42Zm-4.63-4.89v.63l-.16.16Z" style="fill:#ebebeb"></path></g><g id="freepik--Shadow--inject-82"><ellipse id="freepik--path--inject-82" cx="250" cy="416.24" rx="193.89" ry="11.32" style="fill:#f5f5f5"></ellipse></g><g id="freepik--frozen-figure--inject-82"><path d="M343.24,205.74S331,212.2,326.76,210a13,13,0,0,1-1.55-.94c-2.88-2-4.27-3.85-15-.33a24.73,24.73,0,0,1-5.59,1.17c-.71.07-1.4.1-2.07.1l-.93,0-.55,0c-.24,0-.47,0-.7-.06a22.46,22.46,0,0,1-2.66-.42l-.51-.12-1.37-.39c-.4-.13-.79-.27-1.16-.41a21.65,21.65,0,0,1-3.1-1.48,14.1,14.1,0,0,1-2-1.37s7.25-5.94.4-14.11-12.4-13.72-4.75-20.11,10.42-8.51,8.3-15.48-.78-9.77,5.41-12.15l1.4-.51.61-.21c1-.33,1.69-.56,2.27-.77h0a6.87,6.87,0,0,0,.8-.34l.22-.13h0l.31-.22.17-.14a3.78,3.78,0,0,0,.74-1,9.11,9.11,0,0,0,.46-.85c.11-.21.22-.45.33-.71s.23-.51.36-.79l.45-1.05s-3.93-14.14,13.8-13.61c14,.42,14.07,9.24,13.56,15.33-.14,1.61-.31,3-.28,4.05.06,2.06,2.47,4.81,4.91,7.71,3.34,4,6.74,8.21,4.3,11.41-4.22,5.54-.39,14,3.7,19.52s-3.3,15-5.15,19S343.24,205.74,343.24,205.74Z" style="fill:#A83AF7"></path><path d="M343.24,205.74S331,212.2,326.76,210a13,13,0,0,1-1.55-.94c-2.88-2-4.27-3.85-15-.33a24.73,24.73,0,0,1-5.59,1.17c-.71.07-1.4.1-2.07.1l-.93,0-.55,0c-.24,0-.47,0-.7-.06a22.46,22.46,0,0,1-2.66-.42l-.51-.12-1.37-.39c-.4-.13-.79-.27-1.16-.41a21.65,21.65,0,0,1-3.1-1.48,14.1,14.1,0,0,1-2-1.37s7.25-5.94.4-14.11c-1.27-1.52-2.5-2.95-3.61-4.31-4.85-6-7.37-10.6-1.14-15.8,7.65-6.38,10.42-8.51,8.3-15.48s-.78-9.77,5.41-12.15l1.4-.51.61-.21c1-.33,1.69-.56,2.27-.77h0a6.87,6.87,0,0,0,.8-.34l.22-.13h0l.31-.22.17-.14a3.78,3.78,0,0,0,.74-1,9.11,9.11,0,0,0,.46-.85c.11-.21.22-.45.33-.71s.23-.51.36-.79l.45-1.05s-3.93-14.14,13.8-13.61c14,.42,14.07,9.24,13.56,15.33-.14,1.61-.31,3-.28,4.05.06,2.06,2.47,4.81,4.91,7.71,3.34,4,6.74,8.21,4.3,11.41-4.22,5.54-.39,14,3.7,19.52s-3.3,15-5.15,19S343.24,205.74,343.24,205.74Z" style="fill:#fff;opacity:0.5"></path><path d="M329.16,177.52c3.4,2.44,7.69,10.42.51,16.13s-5.09,6-3.41,11.1a5,5,0,0,1-1.05,4.35c-2.88-2-4.27-3.85-15-.33a24.73,24.73,0,0,1-5.59,1.17c3.37-4.41.73-6.67,2.81-10.18,2.84-4.79,17.93-15.19,9.56-20.17s18.86-22.51,11-26.07c-5.13-2.32,1.21-9.69,6.45-14.6-.14,1.61-.31,3-.28,4.05.06,2.06,2.47,4.81,4.91,7.71-5.18,5.2-1.57,7.94-1.14,10.62C338.41,164.33,325.77,175.08,329.16,177.52Z" style="fill:#fff;opacity:0.2"></path><path d="M303.21,158.86c-4.14,5.34-19,13.1-13.24,16.14,4.56,2.43,1.23,7.18-3.61,12.32-4.85-6-7.37-10.6-1.14-15.8,7.65-6.38,10.42-8.51,8.3-15.48s-.78-9.77,5.41-12.15l1.4-.51.61-.21c1-.33,1.69-.56,2.27-.77,0,0-8.1,7.16-6.32,9.93S307.35,153.52,303.21,158.86Z" style="fill:#fff;opacity:0.2"></path><path d="M295,218.06l-6.07,17.45s-10,6-26.11,24.42-5.27,48.27-5.27,48.27h104.7l-15.82-18.84s-11.34-62.2-18.42-70.17S309.49,209.67,295,218.06Z" style="fill:#A83AF7"></path><path d="M295,218.06l-6.07,17.45s-10,6-26.11,24.42-5.27,48.27-5.27,48.27h104.7l-15.82-18.84s-11.34-62.2-18.42-70.17S309.49,209.67,295,218.06Z" style="fill:#fff;opacity:0.7000000000000001"></path><path d="M303.93,162.92s-20-4.26-29.52-10.59S248.75,124,248.75,124L244,128.08s15.11,27.37,24.08,33.06,31.38,15.72,31.38,15.72Z" style="fill:#A83AF7"></path><path d="M303.93,162.92s-20-4.26-29.52-10.59S248.75,124,248.75,124L244,128.08s15.11,27.37,24.08,33.06,31.38,15.72,31.38,15.72Z" style="fill:#fff;opacity:0.6000000000000001"></path><path d="M294.85,170.49c12.4,6.14,31.4,4.71,42,3.23.63-1.91,1.31-3.94,2.06-6.09a97.93,97.93,0,0,0-13.7-3.3,106.71,106.71,0,0,0-14.82-1.57c-6.42,0-13.8.68-13.8.68S295.51,163.69,294.85,170.49Z" style="fill:#A83AF7"></path><path d="M295,212.91l33,2.86c.78-12.27,1.56-20.18,8.83-42.05.63-1.91,1.31-3.94,2.06-6.09a97.93,97.93,0,0,0-13.7-3.3,106.71,106.71,0,0,0-14.82-1.57c-6.42,0-13.8.68-13.8.68s-1.05.25-1.71,7.05C294.25,176.89,293.66,189.67,295,212.91Z" style="fill:#A83AF7"></path><path d="M295,212.91l33,2.86c.78-12.27,1.56-20.18,8.83-42.05.63-1.91,1.31-3.94,2.06-6.09a97.93,97.93,0,0,0-13.7-3.3,106.71,106.71,0,0,0-14.82-1.57c-6.42,0-13.8.68-13.8.68s-1.05.25-1.71,7.05C294.25,176.89,293.66,189.67,295,212.91Z" style="fill:#fff;opacity:0.6000000000000001"></path><path d="M313.08,170.06c8.14-1.05,10.58-4.52,10.58-4.52-5.16-4.87-.87-13.31-.87-13.31L313,154.06a27.55,27.55,0,0,1,.38,4.12c.08,5.94-2.61,6-2.61,6C309.05,167.4,313.08,170.06,313.08,170.06Z" style="fill:#A83AF7"></path><path d="M313.08,170.06c8.14-1.05,10.58-4.52,10.58-4.52-5.16-4.87-.87-13.31-.87-13.31L313,154.06a27.55,27.55,0,0,1,.38,4.12c.08,5.94-2.61,6-2.61,6C309.05,167.4,313.08,170.06,313.08,170.06Z" style="fill:#fff;opacity:0.6000000000000001"></path><path d="M313,154.06a27.55,27.55,0,0,1,.38,4.12c4.72-1.09,9.41-6,9.41-6Z" style="opacity:0.2;isolation:isolate"></path><path d="M321.73,127c-8.3-2-12,1.84-14.65,10.25-3.29,10.5-2.72,18.65,8.19,18.83C330.09,156.27,335.5,130.22,321.73,127Z" style="fill:#A83AF7"></path><path d="M321.26,154.53a11.74,11.74,0,0,1-6,1.5c-.52,0-1,0-1.49-.08-9.47-.87-9.83-8.74-6.7-18.75,2.63-8.4,6.35-12.21,14.65-10.24a9.44,9.44,0,0,1,5.1,3,11.42,11.42,0,0,1,2.49,5.27C330.77,142.08,327.58,151,321.26,154.53Z" style="fill:#fff;opacity:0.6000000000000001"></path><path d="M312.55,138a17.71,17.71,0,0,1-3.23,2.87,2.34,2.34,0,0,0,2,1.46Z" style="opacity:0.30000000000000004"></path><path d="M319.07,137.62h0l-1.33-1a1.92,1.92,0,0,0,.67,1,1.41,1.41,0,0,0-.66.92c-.18.68,0,1.32.49,1.44s1-.34,1.14-1A1.2,1.2,0,0,0,319.07,137.62Z" style="opacity:0.30000000000000004"></path><path d="M310.69,135.27h0l-1.32-1a1.84,1.84,0,0,0,.67,1,1.45,1.45,0,0,0-.67.92c-.18.68.05,1.32.5,1.44s1-.33,1.14-1A1.23,1.23,0,0,0,310.69,135.27Z" style="opacity:0.30000000000000004"></path><path d="M322.85,134.78a4.74,4.74,0,0,0-3.58-2.31.35.35,0,0,0-.4.32.36.36,0,0,0,.32.4,4.12,4.12,0,0,1,3,1.9.36.36,0,0,0,.33.21.34.34,0,0,0,.16,0A.35.35,0,0,0,322.85,134.78Z" style="opacity:0.30000000000000004"></path><path d="M309.69,130.61a.36.36,0,0,0-.22.46.37.37,0,0,0,.47.22,3.63,3.63,0,0,1,3.14.06.36.36,0,0,0,.2.06.34.34,0,0,0,.3-.16.36.36,0,0,0-.1-.5A4.31,4.31,0,0,0,309.69,130.61Z" style="opacity:0.30000000000000004"></path><path d="M311.72,145.89A22.2,22.2,0,0,1,312,149a5,5,0,0,0,.54.07c2.47.33,3.73-.33,4.37-1.17a3.28,3.28,0,0,0,.59-1.4,3.08,3.08,0,0,0,0-.87,11.74,11.74,0,0,1-5,.36C312.05,145.94,311.72,145.89,311.72,145.89Z" style="opacity:0.30000000000000004"></path><path d="M312.57,146l.1.91c2.33.3,4,.21,4.84-.4a3.08,3.08,0,0,0,0-.87A11.74,11.74,0,0,1,312.57,146Z" style="fill:#fff;opacity:0.2"></path><path d="M312.55,149.07c2.47.33,3.73-.33,4.37-1.17a8,8,0,0,0-2.82.18A3,3,0,0,0,312.55,149.07Z" style="fill:#fff;opacity:0.1"></path><path d="M327.48,143.09s-2.26-7.74-.43-12.86c0,0-14.85-10.61-19.61,5.88,0,0,1.9-15.19,16.24-12.14s9.33,23.89.5,28.36C324.18,152.33,328.87,147.92,327.48,143.09Z" style="fill:#A83AF7"></path><path d="M327.48,143.09s-2.26-7.74-.43-12.86c0,0-14.85-10.61-19.61,5.88,0,0,1.9-15.19,16.24-12.14s9.33,23.89.5,28.36C324.18,152.33,328.87,147.92,327.48,143.09Z" style="fill:#fff;opacity:0.5"></path><path d="M326.29,124.8a17,17,0,0,0-10.48-3.26c-6.39.13-9.78,1.39-11.88,5.47s.81,8.34.94,11.31-3.11,5.16-5.48,5.4a11.73,11.73,0,0,0,7-.29c4.09-1.32.17-6.07,1.44-9.13s3.77-3.93,7.86-3.46,10.42,1,11.87-1.19S326.29,124.8,326.29,124.8Z" style="fill:#A83AF7"></path><path d="M327.55,129.65c-1.45,2.24-7.78,1.65-11.87,1.19s-6.59.39-7.86,3.46,2.65,7.81-1.44,9.13a11.73,11.73,0,0,1-7,.29,4.82,4.82,0,0,0,1.07-.24c2.17-.65,4.51-2.62,4.41-5.16-.13-3-3-7.22-.94-11.31s5.49-5.34,11.88-5.47a17,17,0,0,1,10.48,3.26,6.64,6.64,0,0,1,1.47,2.25A2.85,2.85,0,0,1,327.55,129.65Z" style="fill:#fff;opacity:0.5"></path><path d="M325.71,144.52a3.74,3.74,0,0,1,4.7-2.4c2.51.89,2.48,6.46-4.21,6.21C325.24,148.3,324.93,147.28,325.71,144.52Z" style="fill:#A83AF7"></path><path d="M325.71,144.52a3.74,3.74,0,0,1,4.7-2.4c2.51.89,2.48,6.46-4.21,6.21C325.24,148.3,324.93,147.28,325.71,144.52Z" style="fill:#fff;opacity:0.6000000000000001"></path><path d="M326.26,138s-8,6.83-5.38,7.11-1.54,4.84-5.1,7.21,1.54,1.09,1.71,1.59-1.41,1.29-1.41,1.29a6.12,6.12,0,0,0,3.4-.7c1.34-.89,1.13-1.34,0-1.66s5.5-6.13,5.3-7.73-2.5-.4-1.89-1.64,3.37-3.3,3.37-3.3Z" style="fill:#fff;opacity:0.2"></path><path d="M320.39,122.71s-6,.74-7.84,2.43.58,1.48,0,2.62-4.68,2.12-5.77,4.45-.49,3.56,0,5-2,3-2,3,1.54-1.59,0-4.46c0,0-2.72-1.48-.34-4.28s4.7-3.14,5-4-2.13-.69-1.48-2,5.4-3.14,7.81-3.46A9.25,9.25,0,0,1,320.39,122.71Z" style="fill:#fff;opacity:0.2"></path><path d="M248.75,124c-1.31-2.29-9-7.82-11.2-8.42s-6.33,7.14-5.54,8.42,9.87,6.3,12.63,5.27C249.67,127.36,248.75,124,248.75,124Z" style="fill:#A83AF7"></path><path d="M248.75,124c-1.31-2.29-9-7.82-11.2-8.42s-6.33,7.14-5.54,8.42,9.87,6.3,12.63,5.27C249.67,127.36,248.75,124,248.75,124Z" style="fill:#fff;opacity:0.6000000000000001"></path><path d="M398,199.84c2.59-.51,11.84,1.65,13.72,2.9s-1.21,9.46-2.69,9.71-11.25-3.29-12.29-6C394.83,201.39,398,199.84,398,199.84Z" style="fill:#A83AF7"></path><path d="M398,199.84c2.59-.51,11.84,1.65,13.72,2.9s-1.21,9.46-2.69,9.71-11.25-3.29-12.29-6C394.83,201.39,398,199.84,398,199.84Z" style="fill:#fff;opacity:0.6000000000000001"></path><path d="M336.15,166.81c7.82.75,24.83,22.51,27.8,24.09s34,9.3,34,9.3v5.54S364.34,203,357.81,199,340.1,181.29,332,178.88,336.15,166.81,336.15,166.81Z" style="fill:#A83AF7"></path><path d="M336.15,166.81c7.82.75,24.83,22.51,27.8,24.09s34,9.3,34,9.3v5.54S364.34,203,357.81,199,340.1,181.29,332,178.88,336.15,166.81,336.15,166.81Z" style="fill:#fff;opacity:0.6000000000000001"></path><path d="M294.18,175s3.7-4.73,7.52-3.15,5.08,5.8,10.85,5,9.72-3.92,13.81-2.62,7.8,7.79,7.8,7.79L328,215.77l-33-2.86S292.33,179.21,294.18,175Z" style="fill:#A83AF7"></path><path d="M294.18,175s3.7-4.73,7.52-3.15,5.08,5.8,10.85,5,9.72-3.92,13.81-2.62,7.8,7.79,7.8,7.79L328,215.77l-33-2.86S292.33,179.21,294.18,175Z" style="fill:#fff;opacity:0.7000000000000001"></path><path d="M295,212.91s3.81-4.5,4.41-4,1.42,2.06,3.51,2.44.82-2.42,4.07-2.47,2.95,3.17,4.58,3.27,3.06-3.95,5-3.24,2.82,3.4,4.35,3.9,1.33-1.84,3.6-2.28,3.51,5.29,3.51,5.29l0,5s-.62-2.89-2.69-2.54-3.59,2.86-5.2,2.39-1.24-4.73-3.54-4.31-4.54,3-6.19,3-1.93-2.95-3.37-3-3.82,1-5.13,1.92-3.7-1.92-3.7-1.92L295,218.06Z" style="fill:#A83AF7"></path><path d="M295,212.91s3.81-4.5,4.41-4,1.42,2.06,3.51,2.44.82-2.42,4.07-2.47,2.95,3.17,4.58,3.27,3.06-3.95,5-3.24,2.82,3.4,4.35,3.9,1.33-1.84,3.6-2.28,3.51,5.29,3.51,5.29l0,5s-.62-2.89-2.69-2.54-3.59,2.86-5.2,2.39-1.24-4.73-3.54-4.31-4.54,3-6.19,3-1.93-2.95-3.37-3-3.82,1-5.13,1.92-3.7-1.92-3.7-1.92L295,218.06Z" style="fill:#fff;opacity:0.8"></path><path d="M329.16,226.41c.1,5.84-30.75,31.68-28.64,35.37s9.63-1.84,7.58,3.7-28.42,30.54-25,32.41-2.37,8-2.37,8l10.55,1s6.33-3.91,5.4-7.1-11.47,2.48,1.72-11,25-23.54,21.36-28.82-8.69-.26-5.93-5.27,15.16-14,18.85-21Z" style="fill:#fff;opacity:0.2"></path><path d="M334.16,166.81s-4,1.61-3.05,2.07,3.49.54,1.46,2.11a40.56,40.56,0,0,0-4,3.63s2.21,1.54,2.77,2.9l5.93-4.75c2-1.58-1.45-3.43-1.06-3.89s1.68-.59,1.68-.59S337.48,167,334.16,166.81Z" style="fill:#fff;opacity:0.2"></path><path d="M327.29,176.86s-7.83,6.33-7.81,7.91,2.9,1.59,1.4,3.83-12.38,9.76-11.56,11.6-6.83,9.5-6.83,9.5l-2.37-1.85s6.2-5.27,5.8-6.59-3.43-2.38-1.18-4.09,12.5-8.57,11.79-9.76-5.1-1.19-4-3.43,10.32-9,10.32-9S326.23,174.09,327.29,176.86Z" style="fill:#fff;opacity:0.2"></path><path d="M288.12,159.32s-6.2.35-5.27,1.82-5.94,4-5.94,4L274,163.67s4.92-2,4.66-3.29.26-2.24,4.35-2.9Z" style="fill:#fff;opacity:0.2"></path><path d="M243,120.18s-4.75.32-3.82,1.73-4,3.13-4,3.13-2.77-.81-2.64-1.46a26.24,26.24,0,0,1,1.85-3.4s1.77,1.35,2.27,0,1-2,3.65-2.53Z" style="fill:#fff;opacity:0.2"></path><path d="M380.43,196.77s-2.77.79-2.11,1.85,2.64,1.45-1.32,3.43h4.35s3.56-1.54,2.9-2.29-3.29-1.4-2.11-1.8a12.88,12.88,0,0,1,2.19-.53Z" style="fill:#fff;opacity:0.2"></path><path d="M379,350.31c0,12.48,5.14,48.74,4.75,59.1H234.58s-7.86-21.76-2.77-37.56-6.72-57.32-5.54-62.07c1.07-4.23,22.32-10.39,26.85-11.65l.39-.11h.05l.21-.06.2-.06s13,6.35,22.94,6.35,45.38-.39,52.76-.39,29.49.69,29.49.69,19.78.09,25.42,3.17h0a4.5,4.5,0,0,1,.72.48,1.87,1.87,0,0,1,.44.52C388.84,313.78,379,338.32,379,350.31Z" style="fill:#A83AF7"></path><path d="M379,350.31c0,12.48,5.14,48.74,4.75,59.1H234.58s-7.86-21.76-2.77-37.56-6.72-57.32-5.54-62.07c1.07-4.23,22.32-10.39,26.85-11.65l.39-.11h.05l.21-.06.2-.06s13,6.35,22.94,6.35,45.38-.39,52.76-.39,29.49.69,29.49.69,19.78.09,25.42,3.17h0a4.5,4.5,0,0,1,.72.48,1.87,1.87,0,0,1,.44.52C388.84,313.78,379,338.32,379,350.31Z" style="fill:#fff;opacity:0.5"></path><path d="M385.75,308.72c0,1.64-9.65,5-23.52,4.54-15.56-.48-69.1,9.58-73.05,9.83s-60.53-11.33-59.74-14.89c.7-3.16,19.45-8.82,23.68-10.07l.39-.11h.05l.21-.06.2-.06s13,6.35,22.94,6.35,45.38-.39,52.76-.39,29.49.69,29.49.69,19.78.09,25.42,3.17h0a4,4,0,0,0,.72.48C385.61,308.34,385.75,308.52,385.75,308.72Z" style="fill:#fff;opacity:0.30000000000000004"></path><path d="M289.18,323.09c-2,6.87,5.27,49.94,5.8,62s1.71,20.32,1.71,20.32l-59.84,1.95s-8.2-16.43-4.25-28.73,8.13-15.64,3.87-23-7-42.42-7-42.42-1.06-1.85,10.49,1.07S289.18,323.09,289.18,323.09Z" style="fill:#fff;opacity:0.2"></path><path d="M357.62,315.44S337.15,343,338.88,350.31s12.51-1.6,0,16.32-19.54,23.54-18,28.05-4.34,12.71-4.34,12.71h22.35s10-7.58,9.4-9.47-11.49-.38,2.48-15.58,21.52-28,12.8-31.89,9.88-24.21,14.23-35C377.79,315.44,362.47,317.18,357.62,315.44Z" style="fill:#fff;opacity:0.1"></path><path d="M359.16,304.54s-.36,3.4-5.37,2.61-22.15.79-28.57,3.34-14.68.61-22-2.29-17.73,0-31.44-.26S254,297.89,254,297.89s13,6.35,22.94,6.35,45.38-.39,52.76-.39S359.16,304.54,359.16,304.54Z" style="fill:#fff;opacity:0.2"></path><polygon points="214.93 409.97 223.63 401.24 240.35 405.61 244.51 409.97 230.23 413.13 214.93 409.97" style="fill:#A83AF7"></polygon><polygon points="214.93 409.97 223.63 401.24 240.35 405.61 244.51 409.97 230.23 413.13 214.93 409.97" style="fill:#fff;opacity:0.5"></polygon><polygon points="223.63 401.24 229.94 407.19 237.51 406.73 230.57 409.18 230.23 413.13 214.93 409.97 223.63 401.24" style="fill:#fff;opacity:0.2"></polygon><polygon points="288.65 410.17 297.35 401.44 314.07 405.81 318.22 410.17 303.94 413.34 288.65 410.17" style="fill:#A83AF7"></polygon><polygon points="288.65 410.17 297.35 401.44 314.07 405.81 318.22 410.17 303.94 413.34 288.65 410.17" style="fill:#fff;opacity:0.5"></polygon><polygon points="297.35 401.44 303.65 407.39 311.22 406.93 304.28 409.38 303.94 413.34 288.65 410.17 297.35 401.44" style="fill:#fff;opacity:0.2"></polygon><polygon points="253.03 413.57 257.38 409.21 265.74 411.39 267.81 413.57 260.67 415.15 253.03 413.57" style="fill:#A83AF7"></polygon><polygon points="253.03 413.57 257.38 409.21 265.74 411.39 267.81 413.57 260.67 415.15 253.03 413.57" style="fill:#fff;opacity:0.5"></polygon><polygon points="257.38 409.21 260.53 412.18 264.31 411.95 260.85 413.17 260.67 415.15 253.03 413.57 257.38 409.21" style="fill:#fff;opacity:0.2"></polygon><polygon points="202 406.06 206.35 401.7 214.71 403.88 216.79 406.06 209.65 407.64 202 406.06" style="fill:#A83AF7"></polygon><polygon points="202 406.06 206.35 401.7 214.71 403.88 216.79 406.06 209.65 407.64 202 406.06" style="fill:#fff;opacity:0.5"></polygon><polygon points="206.35 401.7 209.5 404.67 213.29 404.44 209.82 405.67 209.65 407.64 202 406.06 206.35 401.7" style="fill:#fff;opacity:0.2"></polygon><polygon points="366.18 409.97 374.88 401.24 391.61 405.61 395.76 409.97 381.48 413.13 366.18 409.97" style="fill:#A83AF7"></polygon><polygon points="366.18 409.97 374.88 401.24 391.61 405.61 395.76 409.97 381.48 413.13 366.18 409.97" style="fill:#fff;opacity:0.5"></polygon><polygon points="374.88 401.24 381.19 407.19 388.76 406.73 381.82 409.18 381.48 413.13 366.18 409.97 374.88 401.24" style="fill:#fff;opacity:0.2"></polygon><polygon points="232.86 271.6 232.86 266.65 237.51 268.13 237.51 272.97 232.86 271.6" style="fill:#A83AF7"></polygon><polygon points="253.56 253.45 253.97 249.98 256.59 249.98 255.08 254.52 253.56 253.45" style="fill:#A83AF7"></polygon><polygon points="202 255.41 202 253.45 203.85 252.84 204.9 255.41 202 255.41" style="fill:#A83AF7"></polygon><polygon points="213.15 291.59 214.43 288.5 217.8 288.5 217.8 290.58 215.46 292.48 213.15 291.59" style="fill:#A83AF7"></polygon><polygon points="244 338.11 249.46 335.74 252.23 339.43 248.12 341.9 244.51 341.9 244 338.11" style="fill:#A83AF7"></polygon><polygon points="220.46 364.75 220.46 362.37 223.13 361.42 224.15 363.08 220.46 364.75" style="fill:#A83AF7"></polygon><g style="opacity:0.5"><polygon points="232.86 271.6 232.86 266.65 237.51 268.13 237.51 272.97 232.86 271.6" style="fill:#fff"></polygon><polygon points="253.56 253.45 253.97 249.98 256.59 249.98 255.08 254.52 253.56 253.45" style="fill:#fff"></polygon><polygon points="202 255.41 202 253.45 203.85 252.84 204.9 255.41 202 255.41" style="fill:#fff"></polygon><polygon points="213.15 291.59 214.43 288.5 217.8 288.5 217.8 290.58 215.46 292.48 213.15 291.59" style="fill:#fff"></polygon><polygon points="244 338.11 249.46 335.74 252.23 339.43 248.12 341.9 244.51 341.9 244 338.11" style="fill:#fff"></polygon><polygon points="220.46 364.75 220.46 362.37 223.13 361.42 224.15 363.08 220.46 364.75" style="fill:#fff"></polygon></g><g style="opacity:0.2"><polygon points="232.86 271.6 232.86 266.65 237.51 268.13 232.86 271.6" style="fill:#fff"></polygon><polygon points="253.56 253.45 253.97 249.98 256.59 249.98 253.56 253.45" style="fill:#fff"></polygon><polygon points="202 255.41 202 253.45 203.85 252.84 202 255.41" style="fill:#fff"></polygon><polygon points="213.15 291.59 214.43 288.5 217.8 288.5 213.15 291.59" style="fill:#fff"></polygon><polygon points="244 338.11 249.46 335.74 244.51 341.9 244 338.11" style="fill:#fff"></polygon><polygon points="220.46 364.75 220.46 362.37 223.13 361.42 220.46 364.75" style="fill:#fff"></polygon></g></g><g id="freepik--Character--inject-82"><g id="freepik--group--inject-82"><path d="M190.46,274c11.68,8.07,17.22,33.36,22.5,33.11s31-18.33,31-18.33l5.88,5.42s-23,26.3-38.51,28.22-16.6-19-34.2-29.8c0,0-3.13-8.44,3.41-14.24S190.46,274,190.46,274Z" style="fill:#263238"></path><path d="M249.88,294.22s-23,26.3-38.51,28.22c-7.73,1-11.88-3.75-16.27-10.06s-9.1-14.32-17.93-19.74c0,0-3.13-8.44,3.41-14.24a22.05,22.05,0,0,1,5.24-3.61c3.08-1.43,4.64-.77,4.64-.77,11.68,8.07,17.22,33.36,22.5,33.11s31-18.33,31-18.33Z" style="fill:#fff;opacity:0.1;isolation:isolate"></path><path d="M195.1,312.38c-4.43-6.35-9.1-14.32-17.93-19.74,0,0-3.13-8.44,3.41-14.24a22.05,22.05,0,0,1,5.24-3.61C189.19,282.89,195.54,299.92,195.1,312.38Z" style="opacity:0.2;isolation:isolate"></path><polygon points="173.63 407.59 182.67 409.5 192.33 393.62 183.29 391.71 173.63 407.59" style="fill:#b97964"></polygon><path d="M184.49,405.67H174.37a.74.74,0,0,0-.71.57L172,413.66a1.23,1.23,0,0,0,.95,1.45l.27,0c3.27-.05,5.66-.25,9.77-.25,2.53,0,10.17.26,13.66.26s4-3.45,2.52-3.77c-6.41-1.4-11.25-3.34-13.3-5.18A2,2,0,0,0,184.49,405.67Z" style="fill:#263238"></path><path d="M185.06,406.83a.22.22,0,0,1-.15-.17.2.2,0,0,1,.1-.2c.3-.19,3-1.84,3.91-1.36a.6.6,0,0,1,.34.55,1.17,1.17,0,0,1-.42,1.06,2.42,2.42,0,0,1-1.59.42A10.13,10.13,0,0,1,185.06,406.83Zm.58-.28a4,4,0,0,0,3-.15.83.83,0,0,0,.27-.71c0-.16-.08-.23-.13-.23a.47.47,0,0,0-.26,0A7.89,7.89,0,0,0,185.64,406.55Z" style="fill:#A83AF7"></path><path d="M185,406.87a.22.22,0,0,1-.1-.18c0-.12.22-2.51,1.18-3.3a1.06,1.06,0,0,1,.84-.25.63.63,0,0,1,.63.52c.17.88-1.49,2.71-2.35,3.18h-.09A.23.23,0,0,1,185,406.87Zm1.33-3.24a4.7,4.7,0,0,0-1,2.6c.86-.64,1.92-2,1.81-2.57,0-.06,0-.2-.28-.2h-.1A.7.7,0,0,0,186.34,403.63Z" style="fill:#A83AF7"></path><polygon points="183.29 391.71 192.33 393.62 187.34 401.81 178.3 399.9 183.29 391.71" style="opacity:0.2;isolation:isolate"></polygon><path d="M148.76,366.81c.49,0,1-.06,1.49-.1,10.23-.85,20.95-3.51,29.2-6,8.52-2.57,14.41-5,14.41-5,1.95,11.29-16.38,41.61-16.38,41.61l15,.93s41.84-48.73,24-68C203.15,316,167,331.57,167,331.57l-49.44.36S113.94,368.66,148.76,366.81Z" style="fill:#A83AF7"></path><polygon points="191.74 400.08 176.82 397.7 178.25 393.64 194.48 397.02 191.74 400.08" style="fill:#A83AF7"></polygon><path d="M148.76,366.81c.49,0,1-.06,1.49-.1,10.23-.85,20.95-3.51,29.2-6-14.49-2.66-28.32-13.08-28.32-13.08Z" style="opacity:0.2;isolation:isolate"></path><polygon points="82.29 390.66 81.51 398.95 100.65 401.44 101.43 393.14 82.29 390.66" style="fill:#b97964"></polygon><path d="M82.36,400.19l1-10.08a.74.74,0,0,0-.5-.76L75.58,387a1.23,1.23,0,0,0-1.54.81.86.86,0,0,0-.05.27c-.26,3.26-.28,5.65-.67,9.75-.23,2.52-1.21,10.1-1.54,13.58s3.07,4.25,3.52,2.86c2-6.26,4.37-10.89,6.4-12.76A2,2,0,0,0,82.36,400.19Z" style="fill:#263238"></path><path d="M81.16,400.65a.19.19,0,0,1,.18-.13.17.17,0,0,1,.18.11c.16.31,1.56,3.15,1,4a.62.62,0,0,1-.58.29,1.18,1.18,0,0,1-1-.52,2.49,2.49,0,0,1-.27-1.63A9.81,9.81,0,0,1,81.16,400.65Zm.22.59a4,4,0,0,0-.13,3,.79.79,0,0,0,.68.33c.16,0,.24-.05.24-.1a.46.46,0,0,0,.08-.25A8.24,8.24,0,0,0,81.38,401.24Z" style="fill:#A83AF7"></path><path d="M81.12,400.59a.27.27,0,0,1,.19-.08c.11,0,2.48.45,3.17,1.48a1.05,1.05,0,0,1,.17.86.63.63,0,0,1-.57.58c-.89.09-2.56-1.74-3-2.63v-.1A.2.2,0,0,1,81.12,400.59Zm3.1,1.63a4.65,4.65,0,0,0-2.5-1.22c.56.91,1.85,2.1,2.39,2,.06,0,.21,0,.23-.26v-.1A.71.71,0,0,0,84.22,402.22Z" style="fill:#A83AF7"></path><polygon points="101.42 393.14 100.64 401.44 90.77 400.15 91.55 391.85 101.42 393.14" style="opacity:0.2;isolation:isolate"></polygon><path d="M153.65,337.31c3,4.51,16,59.59-2.31,72.56-13.45,9.53-57.45-6.26-57.45-6.26l.94-13.79s35.47,5.45,39.71,1.76-15-37.24-16-46.26S153.65,337.31,153.65,337.31Z" style="fill:#A83AF7"></path><polygon points="96.73 388.77 95.63 405.41 91.45 404.35 93.33 387.88 96.73 388.77" style="fill:#A83AF7"></polygon><path d="M117.58,331.93l49.09,3.53s7.62-46.61,23.79-61.44a39.75,39.75,0,0,0-8.35-6.88,50.58,50.58,0,0,0-22.19-7.68,58,58,0,0,0-18,1.1S119.7,286.38,117.58,331.93Z" style="fill:#263238"></path><path d="M190.46,274c-7.1,6.52-12.56,19.18-16.45,31.32-1.68,5.27-3.07,10.45-4.16,15-2.14,8.78-3.18,15.14-3.18,15.14l-49.09-3.53A138,138,0,0,1,127.7,285.6c1.06-2.58,2.15-5,3.22-7.16,1.91-3.91,3.77-7.2,5.4-9.86.73-1.17,1.41-2.22,2-3.14a57.14,57.14,0,0,1,3.6-4.88,58,58,0,0,1,18-1.1c-3,3.59.6,10.91,12.78,12.44,7,.88,9.78-1.89,9.41-4.76A39.75,39.75,0,0,1,190.46,274Z" style="fill:#fff;opacity:0.2;isolation:isolate"></path><path d="M160.76,260.36c-1.51,5.43,14.12,13.05,19.6,7.63-3-2.24-3.73-4.57-3.36-6.84a10.44,10.44,0,0,1,1.61-3.87,20.89,20.89,0,0,1,1.36-1.92l-6.65-13.77C172,247.65,168.88,261.33,160.76,260.36Z" style="fill:#b97964"></path><path d="M173.14,248c-3,6.75,1.42,11.37,3.86,13.12a10.44,10.44,0,0,1,1.61-3.87Z" style="opacity:0.2;isolation:isolate"></path><path d="M248.42,286.45c1.23.36,8.64-2.78,10.16-2.21,1.68.61,5.08,8.66,4.47,9.85-.8,1.54-13.21,1-14.63.27s-4.42-5.18-4.42-5.18Z" style="fill:#b97964"></path><path d="M194,230.18s2,9.34-3.78,14.14-7.17-16.52-7.17-16.52Z" style="fill:#263238"></path><path d="M193,247.78a27.79,27.79,0,0,1-.86,3.1c-.15.39-.3.76-.48,1.12a11.52,11.52,0,0,1-6.26,5.81,10.42,10.42,0,0,1-11.93-2.93l-.27-.32c-3.71-4.62-3.1-9.45-2.72-17.69a11.29,11.29,0,0,1,16.66-9.6C193.82,230.83,194.58,240.56,193,247.78Z" style="fill:#b97964"></path><path d="M193,247.78a27.79,27.79,0,0,1-.86,3.1c-.15.39-.3.76-.48,1.12a11.52,11.52,0,0,1-6.26,5.81,10.42,10.42,0,0,1-11.93-2.93c-1.1-3.33-1.92-10.41.37-14.55,0,0,2.84,8,3.63,8.23s.91-2.62,5-.66S187.91,250.48,193,247.78Z" style="opacity:0.30000000000000004;isolation:isolate"></path><path d="M182.69,240.47c-.11.66.22,1.24.67,1.29s.84-.46.92-1.13-.24-1.24-.67-1.29S182.77,239.79,182.69,240.47Z" style="fill:#263238"></path><path d="M190.24,241.26c-.11.66.24,1.25.67,1.29s.84-.46.92-1.13-.23-1.24-.67-1.29S190.31,240.63,190.24,241.26Z" style="fill:#263238"></path><path d="M187.81,241.34a23.81,23.81,0,0,0,2.59,6,3.87,3.87,0,0,1-3.27.26Z" style="fill:#a24e3f"></path><path d="M180.61,237.78a.43.43,0,0,0,.39-.11,3.17,3.17,0,0,1,2.65-1,.4.4,0,1,0,.14-.78h0a4,4,0,0,0-3.36,1.28.4.4,0,0,0,0,.56h0A.59.59,0,0,0,180.61,237.78Z" style="fill:#263238"></path><path d="M185.68,251h0a6.07,6.07,0,0,1-5.07-2.35.21.21,0,0,1,.06-.29.2.2,0,0,1,.28,0h0a5.74,5.74,0,0,0,4.71,2.16.21.21,0,0,1,.22.19v0a.21.21,0,0,1-.19.22Z" style="fill:#263238"></path><path d="M193.76,239a.37.37,0,0,0,.23,0,.39.39,0,0,0,.24-.5h0a3.94,3.94,0,0,0-2.59-2.5.4.4,0,0,0-.47.3h0a.4.4,0,0,0,.29.47h0a3.18,3.18,0,0,1,2,2A.42.42,0,0,0,193.76,239Z" style="fill:#263238"></path><path d="M166.81,244.67c-1.44-7.34-.15-15.19,1.75-17.35S180,230.73,180,230.73c-2.23-.59-4.47,1.28-3.75,3.52,1,3.12-1,7.76-3.46,9.51,0,0,0-1.32-1.13-1.07s-1.22,7.15.77,10.56C172.44,253.25,168.26,252,166.81,244.67Z" style="fill:#263238"></path><path d="M166.19,243.22a7.85,7.85,0,0,0,4.06,4.41c2.5,1.15,4.18-1,3.85-3.58-.32-2.3-2-5.73-4.67-5.76S165.34,240.81,166.19,243.22Z" style="fill:#b97964"></path><path d="M194,230.18s-2.54,3-9.93,2.26a20.36,20.36,0,0,0,5-1.07s-9.91,1.37-14.64-.41-5.88-3.64-5.88-3.64.81-5,11.76-4.37S194.74,228.32,194,230.18Z" style="fill:#263238"></path><path d="M168,248.45s-.13-13.57,9.12-20c7.18-5,14.53-3.26,16.59-.12,0,0,1.79-2.66-1.64-5.47a13,13,0,0,0-3.4-1.72s-11.54-7.55-22.95-1.07-2.93,11.82-2.93,11.82-.93,8.15,2,10.22C164.77,242.07,165.91,248.32,168,248.45Z" style="fill:#A83AF7"></path><polygon points="253.97 281.99 251.22 282.62 266.24 310.64 267.81 310.64 253.97 281.99" style="fill:#A83AF7"></polygon><path d="M254,280.71s-3.37.71-4.09,1.28-.77,1.56,2.05,1.29S256.09,280.84,254,280.71Z" style="fill:#A83AF7"></path><path d="M254,280.71s-3.37.71-4.09,1.28-.77,1.56,2.05,1.29S256.09,280.84,254,280.71Z" style="fill:#fff;opacity:0.2"></path><path d="M157.54,259.64s3.64,15.67,16.12,17.71c9,1.48,9.43-9.49,9.43-9.49a2.21,2.21,0,0,1,2.8.18c1.62,1.19,3.86,16.68-8.72,19.77s-19-6.3-23.15-15c-5.24-10.93-5.09-12.8-3.31-14.21S157.82,258.1,157.54,259.64Z" style="fill:#A83AF7"></path><path d="M186.32,279.34a12.09,12.09,0,0,1-7.32,7.89,13.53,13.53,0,0,1-1.83.58c-12.58,3.08-19-6.3-23.15-15-5.24-10.93-5.09-12.8-3.31-14.21s7.11-.48,6.83,1.06c0,0,3.64,15.67,16.12,17.71a7.5,7.5,0,0,0,5-.68c4.22-2.31,4.46-8.81,4.46-8.81a2.19,2.19,0,0,1,2.73.13l.07.05C186.83,268.73,188,274.23,186.32,279.34Z" style="fill:#fff;opacity:0.5"></path><path d="M186.32,279.34a12.09,12.09,0,0,1-7.32,7.89c0-3.67-.14-7.38-.37-10.56,4.22-2.31,4.46-8.81,4.46-8.81a2.19,2.19,0,0,1,2.73.13A26.7,26.7,0,0,1,186.32,279.34Z" style="opacity:0.1;isolation:isolate"></path><path d="M177.38,264.47a6.54,6.54,0,0,1,4,5.38c.6,4.23-4.74,45.67-4.2,49.92s.64,4.49.64,4.49l7.12-1.69a48.84,48.84,0,0,1-.89-16.05c1.09-8.11,3.66-29.57,1.78-34.62S181.29,263.18,177.38,264.47Z" style="fill:#A83AF7"></path><path d="M177.38,264.47a6.54,6.54,0,0,1,4,5.38c.6,4.23-4.74,45.67-4.2,49.92s.64,4.49.64,4.49l7.12-1.69a48.84,48.84,0,0,1-.89-16.05c1.09-8.11,3.66-29.57,1.78-34.62S181.29,263.18,177.38,264.47Z" style="fill:#fff;opacity:0.5"></path><path d="M217.8,287.1l3.09-32.48a1.12,1.12,0,0,1,1.11-1h0a1.13,1.13,0,0,1,1.13,1.15l-.94,32.34Z" style="fill:#A83AF7"></path><polygon points="216.19 254.59 227.99 254.59 227.99 258.58 215.46 258.58 216.19 254.59" style="fill:#263238"></polygon><path d="M210.07,274.87s11.72-8.09,13.57-8.35,2.55,8.58,1.18,12.54c-.79,2.3-5.5,2.21-10.39,3.08Z" style="fill:#b97964"></path><polygon points="191.74 400.08 176.82 397.7 178.25 393.64 194.48 397.02 191.74 400.08" style="fill:#fff;opacity:0.5"></polygon><polygon points="96.73 388.77 95.63 405.41 91.45 404.35 93.33 387.88 96.73 388.77" style="fill:#fff;opacity:0.5"></polygon><path d="M145.57,287.81s-8.67-3.53-14.65-9.37c1.91-3.91,3.77-7.2,5.4-9.86.73-1.17,1.41-2.22,2-3.14Z" style="opacity:0.2;isolation:isolate"></path><path d="M174,305.34c-1.68,5.27-3.07,10.45-4.16,15C161.56,317,154,302.1,154,302.1Z" style="opacity:0.2;isolation:isolate"></path><path d="M143.26,260.3c7.62-1.29,21.7,37.63,28.24,38.42s38.57-23.85,38.57-23.85l4.36,7.27s-28,30-41.56,33-39-36-38.41-43.46S137.81,261.21,143.26,260.3Z" style="fill:#263238"></path><path d="M143.26,260.3c7.62-1.29,21.7,37.63,28.24,38.42s38.57-23.85,38.57-23.85l4.36,7.27s-28,30-41.56,33-39-36-38.41-43.46S137.81,261.21,143.26,260.3Z" style="fill:#fff;opacity:0.15;isolation:isolate"></path></g></g><g id="freepik--Tools--inject-82"><polygon points="385.75 351.99 388.76 379.42 393.18 379.42 389.47 350.99 385.75 351.99" style="fill:#263238"></polygon><polygon points="385.75 351.99 388.76 379.42 393.18 379.42 389.47 350.99 385.75 351.99" style="fill:#fff;opacity:0.4"></polygon><path d="M421.35,352.93l-4.41-1.61a3.38,3.38,0,0,0-4.53,2.83l-.39,3.79L410,378.23h5.53l.18-2.78,0-2.09,1.4-.79v-4.35l1.37-1.27-.59-1.74,1.23-.9,3.08-2.25,1.29-5.12A3.38,3.38,0,0,0,421.35,352.93Zm.16,5.4a20.89,20.89,0,0,1-5.54.39c-1.33-.33-1.93-3.86.29-3.38a17.2,17.2,0,0,0,5.25,0C421.84,355.29,422.84,358,421.51,358.33Z" style="fill:#A83AF7"></path><path d="M417.87,365.21l.59,1.74-1.37,1.27v4.35l-1.4.79,0,2.09-.18,2.78H410L412,357.94s1.72,5.14,3.14,6.08c.83.54,3.94.29,3.94.29Z" style="fill:#fff;opacity:0.7000000000000001"></path><path d="M396.9,378.23l2.09-19.9a2.26,2.26,0,0,1,2.86-1.94h0a2.26,2.26,0,0,1,1.61,2.53l-3.12,19.31Z" style="fill:#A83AF7"></path><path d="M396.9,378.23l2.09-19.9a2.26,2.26,0,0,1,2.86-1.94h0a2.26,2.26,0,0,1,1.61,2.53l-3.12,19.31Z" style="opacity:0.2;isolation:isolate"></path><polygon points="422.02 377.54 381.32 377.54 385.32 415.15 418.02 415.15 422.02 377.54" style="fill:#A83AF7"></polygon><polygon points="422.02 377.54 381.32 377.54 385.32 415.15 418.02 415.15 422.02 377.54" style="opacity:0.2;isolation:isolate"></polygon><rect x="379.12" y="375.45" width="45.1" height="5.56" style="fill:#A83AF7"></rect></g></svg>