<svg xmlns="http://www.w3.org/2000/svg" viewBox="0 0 578.5 578.7"><title>Ativo 1</title><path d="M97.4,437v4.4a1.2,1.2,0,0,0,2.1.9l4-3.7c13.8-13.9,27.6-28,41.6-41.7a12.9,12.9,0,0,0,4.1-10.1c-.2-24.3-.1-48.6-.2-73a11.7,11.7,0,0,1,3.8-9.2c12.7-12.5,25.2-25.2,37.8-37.8l2.6-2.1a1.2,1.2,0,0,1,2,1v78.2a1.2,1.2,0,0,0,2,.9l.6-.5c15.7-15.6,31.4-31.3,46.9-47.1,1.5-1.5,2.2-4.4,2.2-6.6.2-25,0-50,.3-75a13.8,13.8,0,0,1,3.5-8.7c12.2-12.7,24.8-25.1,37.3-37.6l2.6-2.1a1.2,1.2,0,0,1,2,1v78.2a1.2,1.2,0,0,0,1.8,1.1h.1c16.1-16,32.2-31.9,48.1-48.1a9.3,9.3,0,0,0,2.2-6.1c.1-15.9.1-31.8.1-47.7,0-.4,0-14.3.1-42h0a28.2,28.2,0,0,0,0-8.2h0v-.3a26.6,26.6,0,0,0-26.2-22.4,26.2,26.2,0,0,0-13.3,3.6l-2.2,2.1a29.6,29.6,0,0,0-5,5c-.7.7-1.5,1.4-2.2,2.2l-6.9,6.7h-.1c-.6.4-1.1,1-1.7,1.5-33,33.3-66.3,66.5-99.5,99.7q-42.9,42.9-86,85.7a14.7,14.7,0,0,0-4.6,11.4C97.5,339.3,97.4,388.2,97.4,437Z"/><path d="M578.5,5.5c0-4.2-1.5-5.3-5.5-5.3-30.9.2-61.7.1-92.5.1S418.8.4,388,.2h-1.8a25.6,25.6,0,0,0-3.9-.3,26,26,0,0,0,0,52l3.3-.2H518.8c7.9,0,7.9,0,7.9,8.1q0,64.5-.1,129a26,26,0,1,0,51.7,4.5,6.6,6.6,0,0,0,.1-2Q578.4,98.5,578.5,5.5Z"/><path d="M483.3,233l-3,.2c-42.8.2-85.6.1-128.5,0a13.2,13.2,0,0,0-10.4,4.3q-63.3,63.6-126.8,127L30.5,548.6c-9.8,9.7-19.7,19.2-30.5,29.8l3.9.3c20.8,0,41.7.1,62.5-.1a10.8,10.8,0,0,0,6.3-3.1q45.5-45,90.5-90.4a13.6,13.6,0,0,1,10.5-4.5c37.5.2,75,.1,112.5.2l3.1.2a26,26,0,0,0,0-52h-2.4c-19.9.2-39.9.1-59.8.1-1.8,0-3.6-.4-6.7-.7,2.7-2.9,4.4-4.9,6.3-6.8,11.5-11.6,23.2-23,34.6-34.7a12.6,12.6,0,0,1,10-4.2H388l3.3.2a26,26,0,0,0,0-52H319.8a7.5,7.5,0,0,1-.7-1.2c1.2-1.4,2.3-2.8,3.5-4,12-12,24.1-23.9,36-36.1a14.6,14.6,0,0,1,11.4-4.8c37.7.2,75.3.1,113,.2l2.8-.2a26,26,0,0,0-2.5-51.9Z"/></svg>