<svg width="100" height="100" viewBox="0 0 100 100" fill="none" xmlns="http://www.w3.org/2000/svg">
<rect width="100" height="100" rx="10" fill="url(#paint0_linear_1_12)"/>
<path d="M23.9875 68.6143V69.1541C23.9844 69.1851 23.9917 69.2163 24.0083 69.243C24.0248 69.27 24.0498 69.291 24.0796 69.3032C24.1094 69.3154 24.1425 69.3183 24.1741 69.3114C24.2057 69.3043 24.2342 69.2882 24.2555 69.2646L24.7659 68.8105C26.5271 67.1056 28.2883 65.3757 30.0751 63.6953C30.2511 63.538 30.3891 63.3454 30.4795 63.1316C30.5699 62.9175 30.6104 62.6869 30.5983 62.4564C30.5728 59.4753 30.5855 56.4943 30.5728 53.5014C30.5623 53.2904 30.6004 53.08 30.6842 52.8849C30.768 52.6898 30.8955 52.5149 31.0577 52.3726C32.6786 50.8392 34.2738 49.2814 35.8819 47.7356L36.2137 47.478C36.2366 47.4581 36.2651 47.4454 36.2957 47.4414C36.3262 47.4374 36.3573 47.4422 36.3849 47.4556C36.4125 47.4689 36.4353 47.4897 36.4503 47.5158C36.4653 47.5416 36.4718 47.5711 36.4689 47.6007V57.1937C36.4688 57.2221 36.4773 57.2499 36.4933 57.2741C36.5093 57.2979 36.5322 57.317 36.5592 57.3286C36.5862 57.3402 36.6162 57.3442 36.6455 57.34C36.6748 57.3354 36.7021 57.3229 36.7242 57.3042L36.8008 57.2428C38.8044 55.3289 40.8082 53.4031 42.7863 51.4648C42.9777 51.2808 43.0671 50.925 43.0671 50.6552C43.0927 47.5885 43.0671 44.5217 43.1052 41.4549C43.1199 41.0599 43.2781 40.6824 43.5521 40.3877C45.1091 38.8297 46.7172 37.3086 48.3124 35.7752L48.6441 35.5176C48.6671 35.4977 48.6955 35.4849 48.7262 35.4809C48.7566 35.4769 48.7878 35.4818 48.8153 35.4951C48.8429 35.5083 48.8656 35.5293 48.8806 35.5552C48.8957 35.5811 48.9022 35.6107 48.8994 35.6403V45.2333C48.898 45.2597 48.9039 45.2861 48.917 45.3094C48.9298 45.333 48.9491 45.3526 48.9724 45.3665C48.9959 45.3801 49.0229 45.3875 49.0505 45.3881C49.078 45.3883 49.1053 45.3815 49.1291 45.3682H49.1419C51.1966 43.4054 53.2514 41.4549 55.2805 39.4676C55.4646 39.2586 55.5642 38.993 55.5614 38.7193C55.5742 36.7688 55.5742 34.8183 55.5742 32.8679C55.5742 32.8188 55.5742 31.1137 55.5869 27.7157C55.6378 27.3822 55.6378 27.0433 55.5869 26.7098V26.673C55.4594 25.908 55.0534 25.2115 54.4406 24.708C53.8281 24.2046 53.0492 23.927 52.243 23.9251C51.6464 23.9241 51.0603 24.0766 50.5458 24.3667L50.265 24.6243C50.0276 24.8035 49.8132 25.0095 49.6269 25.2377C49.5374 25.3236 49.4355 25.4095 49.3461 25.5076L48.4655 26.3295H48.4527C48.3761 26.3786 48.3124 26.4522 48.2358 26.5135C44.0241 30.5985 39.7744 34.6711 35.5373 38.7438C31.8873 42.2523 28.2288 45.7566 24.5617 49.2567C24.3647 49.4353 24.2102 49.6529 24.1088 49.8942C24.0075 50.1356 23.9617 50.3951 23.9747 50.6552C24.0002 56.6295 23.9875 62.6279 23.9875 68.6143Z" fill="#DFDFDF"/>
<path d="M85.3863 15.6816C85.3863 15.1663 85.1949 15.0314 84.6846 15.0314C80.741 15.0559 76.8101 15.0437 72.8796 15.0437C68.9487 15.0437 65.0051 15.0559 61.0742 15.0314H60.8445C60.6801 15.0069 60.5137 14.9946 60.347 14.9946C59.467 14.9946 58.6228 15.3306 58.0006 15.9288C57.3782 16.5269 57.0286 17.3382 57.0286 18.1841C57.0286 19.03 57.3782 19.8412 58.0006 20.4394C58.6228 21.0375 59.467 21.3735 60.347 21.3735L60.7681 21.349H77.7674C78.7757 21.349 78.7757 21.349 78.7757 22.3426C78.7757 27.6175 78.7715 32.8924 78.7629 38.1673C78.6951 38.5983 78.7198 39.038 78.8356 39.4594C78.9515 39.8808 79.1559 40.2749 79.4362 40.6174C79.7168 40.9599 80.0675 41.2435 80.4664 41.4507C80.8654 41.6579 81.3041 41.7843 81.7559 41.8221C82.2077 41.8599 82.6626 41.8083 83.0928 41.6705C83.523 41.5326 83.9194 41.3115 84.257 41.0208C84.5949 40.73 84.8672 40.3758 85.0569 39.9799C85.2469 39.5841 85.3502 39.155 85.361 38.7193C85.3781 38.6386 85.3823 38.5559 85.3738 38.474C85.3738 30.8847 85.3778 23.2872 85.3863 15.6816Z" fill="#DFDFDF"/>
<path d="M73.2368 43.5894L72.854 43.6139C67.3917 43.6383 61.9295 43.6261 56.4544 43.6139C56.2065 43.6022 55.9589 43.6437 55.7295 43.7348C55.5 43.826 55.2944 43.9648 55.1272 44.1415C49.7416 49.3428 44.3475 54.5358 38.9447 59.7207L15.4494 82.3046C14.1987 83.4944 12.9352 84.6598 11.5569 85.96L12.0546 85.9969C14.7092 85.9969 17.3765 86.0091 20.031 85.9847C20.3356 85.9475 20.6186 85.8138 20.8351 85.6045C24.7063 81.9244 28.5562 78.2278 32.3849 74.515C32.5533 74.335 32.7603 74.1924 32.9917 74.097C33.2231 74.0019 33.4733 73.9559 33.7249 73.963C38.5108 73.9874 43.2966 73.9752 48.0824 73.9874L48.478 74.0118C49.3583 74.0118 50.2022 73.6759 50.8243 73.0779C51.4468 72.4796 51.7963 71.6683 51.7963 70.8224C51.7963 69.9764 51.4468 69.1652 50.8243 68.5672C50.2022 67.9691 49.3583 67.6329 48.478 67.6329H48.1719C45.6321 67.6576 43.0796 67.6451 40.5399 67.6451C40.3101 67.6451 40.0804 67.5963 39.6849 67.5594C40.0296 67.2036 40.2465 66.9582 40.489 66.7251C41.9565 65.3022 43.4499 63.9037 44.9046 62.4685C45.0639 62.2967 45.2613 62.1613 45.4822 62.0721C45.7028 61.983 45.9416 61.9424 46.181 61.9532H61.0745L61.4956 61.9779C62.3756 61.9779 63.2198 61.6416 63.8419 61.0436C64.4641 60.4456 64.8139 59.6343 64.8139 58.7884C64.8139 57.9425 64.4641 57.1312 63.8419 56.5332C63.2198 55.9349 62.3756 55.599 61.4956 55.599H52.3705C52.3361 55.5527 52.3063 55.5033 52.2813 55.4516C52.4344 55.2801 52.5747 55.1083 52.728 54.9609C54.2594 53.4889 55.8036 52.029 57.3225 50.5326C57.5054 50.338 57.7303 50.1844 57.9818 50.0828C58.2332 49.9811 58.5046 49.9334 58.7772 49.9436C63.5886 49.9683 68.3873 49.9561 73.1987 49.9683L73.5559 49.9436C74.4104 49.8718 75.2023 49.485 75.7663 48.864C76.3305 48.243 76.6224 47.4362 76.581 46.613C76.5398 45.7896 76.1687 45.0135 75.5451 44.4476C74.9215 43.8816 74.0943 43.5696 73.2368 43.5769V43.5894Z" fill="#DFDFDF"/>
<defs>
<linearGradient id="paint0_linear_1_12" x1="100" y1="0" x2="0" y2="100" gradientUnits="userSpaceOnUse">
<stop stop-color="#581EFF"/>
<stop offset="1" stop-color="#8828B6"/>
</linearGradient>
</defs>
</svg>
